<?xml  version="1.0" encoding="UTF-8"?>
<!DOCTYPE svg PUBLIC "-//W3C//DTD SVG 1.0//EN" "http://www.w3.org/TR/2001/REC-SVG-20010904/DTD/svg10.dtd" >
<svg xmlns="http://www.w3.org/2000/svg" >
<metadata>
<version>1.0</version>
<id><![CDATA[Avenir Next W10 Heavy]]></id>
<vendor>Monotype Imaging Inc.</vendor>
<credits>
<name>Fonts.com WebFonts</name>
<URL>http://webfonts.fonts.com</URL>
<role>Home of the Web fonts</role>
</credits>
<license>
<URL>http://webfonts.fonts.com/Legal</URL>
</license>
<copyright><![CDATA[Copyright © 2003 - 2012 Linotype GmbH, www.linotype.com. All rights reserved. This font software may not be reproduced, modified, disclosed or transferred without the express written approval of Linotype GmbH. Avenir is a trademark of Linotype GmbH registered in the U.S. Patent and Trademark Office and may be registered in certain other jurisdictions. This typeface is original artwork of Adrian Frutiger and Akira Kobayashi. The design may be protected in certain jurisdictions.]]></copyright>
<trademark><![CDATA[Avenir is a trademark of Linotype GmbH registered in the U.S. Patent and Trademark Office and may be registered in certain other jurisdictions.]]></trademark>
<licensee>
<name></name>
</licensee>
</metadata>
<defs >
<font horiz-adv-x="651" id="6dd157a3-38fb-4b2e-9988-bbe7b2da47f8">
<font-face font-family="" panose-1="2 11 9 3 2 2 2 2 2 4" ascent="957" descent="-254" units-per-em="1000" alphabetic="0">
</font-face>
<missing-glyph horiz-adv-x="0" />

<glyph unicode="&#xA;" />
<glyph unicode="&#xD;" horiz-adv-x="0" />
<glyph unicode=" " horiz-adv-x="250" />
<glyph unicode="!" horiz-adv-x="448" d="M224 -16Q198 -16 176 -7T136 19T110 57T100 105Q100 130 109 152T136 190T175 216T224 226Q250 226 272 217T312 191T338 152T348 105Q348 79 339 57T312 19T273 -6T224 -16ZM104 708H344V260H104V708Z"  />
<glyph unicode="&quot;" horiz-adv-x="556" d="M303 708H475V426H303V708ZM81 708H254V426H81V708Z"  />
<glyph unicode="#" horiz-adv-x="620" d="M471 321H548V187H453L426 0H281L307 187H267L240 0H95L121 187H45V321H140L150 387H73V521H168L194 708H340L313 521H354L381 708H526L499 521H575V387H480L471 321ZM285 321H326L336 387H294L285 321Z"  />
<glyph unicode="$" horiz-adv-x="700" d="M401 714Q467 710 532 685T649 614L501 467Q477 496 442 511T379 526Q353 526 337 519T321 495Q321 479 337 472T391 452Q429 440 471 425T548 385T607 324T630 234Q630 178 610 135T557 62T481 14T390 -7V-83H288V-8Q218 -3 153 24T40 91L185 245Q197 232 214 220T252 199T293 184T337 178Q357 178 373 185T390 210Q390 220 385 227T365 241T327 256T265 277Q229 289 196 305T138 344T97 401T82 479Q82 532 100 572T148 641T217 687T299 712V786H401V714H401Z"  />
<glyph unicode="%" horiz-adv-x="935" d="M224 333Q183 333 148 348T85 389T43 451T27 526Q27 567 42 602T85 664T147 705T224 720Q264 720 300 705T362 664T404 603T420 526Q420 486 405 451T363 390T300 348T224 333ZM224 586Q200 586 182 569T164 526Q164 502 182 485T224 468Q247 468 265 485T283 526Q283 551 265 568T224 586ZM711 -12Q670 -12 635 3T572 44T530 106T514 181Q514 222 529 257T572 319T634 360T711 375Q751 375 787 360T849 319T891 258T907 181Q907 141 892 106T850 45T787 3T711 -12ZM711 241Q687 241 669 224T651 181Q651 157 669 140T711 123Q734 123 752 140T770 181Q770 206 752 223T711 241ZM208 16L628 739L725 684L306 -37L208 16Z"  />
<glyph unicode="&amp;" horiz-adv-x="840" d="M520 51Q488 23 439 5T320 -14Q269 -14 219 -2T130 36T65 104T40 205Q40 239 51 268T80 321T124 363T179 394Q150 420 130 456T110 539Q110 591 133 627T194 685T276 718T364 728Q408 728 451 718T530 684T587 625T609 536Q609 503 598 477T568 429T525 390T472 357L521 311L576 390H825L655 183L847 0H569L520 51ZM366 575Q343 575 332 561T320 529Q320 512 330 497T357 469Q380 478 395 493T410 529Q410 549 399 562T366 575ZM304 273Q290 268 278 255T265 218Q265 203 271 193T287 176T309 166T332 163Q351 163 367 169T392 184L304 273Z"  />
<glyph unicode="&apos;" horiz-adv-x="334" d="M81 708H253V426H81V708Z"  />
<glyph unicode="(" horiz-adv-x="360" d="M18 288Q18 410 55 532T167 758L320 702Q187 518 187 288Q187 58 320 -126L167 -182Q92 -79 55 43T18 288Z"  />
<glyph unicode=")" horiz-adv-x="360" d="M342 288Q342 166 305 44T193 -182L40 -126Q173 58 173 288Q173 518 40 702L193 758Q268 655 305 533T342 288Z"  />
<glyph unicode="*" horiz-adv-x="527" d="M457 374L336 291L262 386L191 296L71 379L145 468L28 505L76 635L190 597V708H339V596L455 631L499 501L385 467L457 374Z"  />
<glyph unicode="+" horiz-adv-x="666" d="M253 378V576H411V378H617V228H413V30H255V228H49V378H253Z"  />
<glyph unicode="&#x2c;" horiz-adv-x="360" d="M14 -120L96 193H314L200 -120H14Z"  />
<glyph unicode="-" horiz-adv-x="336" d="M30 371H306V199H30V371Z"  />
<glyph unicode="." horiz-adv-x="360" d="M48 113Q48 140 58 163T87 204T130 232T182 243Q208 243 231 233T273 205T301 164T312 113Q312 86 302 62T273 21T232 -6T182 -16Q155 -16 131 -6T88 21T59 62T48 113Z"  />
<glyph unicode="/" horiz-adv-x="455" d="M-3 -11L300 767L458 719L154 -59L-3 -11Z"  />
<glyph unicode="0" horiz-adv-x="700" d="M350 -20Q285 -20 236 -3T152 43T94 110T57 190T38 275T32 358Q32 398 37 440T56 524T93 602T152 667T236 711T350 728Q448 728 510 693T607 603T655 483T668 358Q668 319 663 276T644 190T607 110T549 43T464 -3T350 -20ZM350 523Q328 523 314 508T292 469T281 416T278 358Q278 329 281 299T292 243T314 203T350 187Q372 187 386 202T408 243T419 298T422 358Q422 386 419 415T409 469T387 508T350 523Z"  />
<glyph unicode="1" horiz-adv-x="700" d="M288 456L169 374L57 548L308 708H528V0H288V456Z"  />
<glyph unicode="2" horiz-adv-x="700" d="M346 409Q363 422 374 438T385 471Q385 491 373 506T333 521Q304 521 285 498T264 436L37 462Q44 531 73 581T145 664T242 712T353 728Q405 728 456 715T548 675T613 603T638 497Q638 453 627 420T596 360T552 313T500 273L396 199H640V0H66V185L346 409Z"  />
<glyph unicode="3" horiz-adv-x="700" d="M533 371Q560 362 582 346T621 309T645 264T654 214Q654 152 628 108T560 35T465 -7T358 -20Q304 -20 252 -8T156 32T80 100T33 198L255 250Q261 224 284 202T345 180Q355 180 366 182T386 190T401 205T407 228Q407 260 379 270T304 280H236V444H312Q350 444 373 454T396 495Q396 518 378 527T340 536Q315 536 294 521T268 475L47 522Q65 580 98 619T173 683T264 717T360 728Q407 728 457 717T548 680T615 615T641 519Q641 459 610 424T533 375V371Z"  />
<glyph unicode="4" horiz-adv-x="700" d="M588 0H372V125H31V319L299 708H587V311H683V125H588V0ZM371 490L253 311H375V490H371Z"  />
<glyph unicode="5" horiz-adv-x="700" d="M650 238Q650 164 623 115T554 35T459 -7T355 -20Q301 -20 249 -6T154 37T81 105T41 198L261 254Q267 225 290 204T347 182Q373 182 393 194T413 236Q413 254 402 265T372 284T332 293T287 296Q271 296 249 295T201 290T151 283T102 275L127 708H608V510H328L324 459Q338 461 352 462T377 464Q432 464 481 451T568 411T628 340T650 238Z"  />
<glyph unicode="6" horiz-adv-x="700" d="M418 486Q464 486 507 471T585 425T639 351T660 250Q660 183 635 133T567 48T468 -3T350 -20Q288 -20 232 -4T133 46T65 129T40 248Q40 315 66 373T128 481L290 708H579L416 497L407 486H418ZM350 320Q318 320 298 300T277 249Q277 218 297 197T350 176Q384 176 404 197T425 249Q425 279 405 299T350 320Z"  />
<glyph unicode="7" horiz-adv-x="700" d="M116 0L385 510H81V708H645V539L392 0H116Z"  />
<glyph unicode="8" horiz-adv-x="700" d="M350 551Q323 551 308 535T292 499Q292 479 307 462T350 445Q377 445 392 462T408 499Q408 518 393 534T350 551ZM350 277Q319 277 304 259T288 218Q288 195 303 178T350 160Q381 160 396 177T412 218Q412 241 397 259T350 277ZM526 368Q577 349 610 307T644 204Q644 144 619 102T552 32T458 -7T350 -20Q295 -20 242 -8T148 31T82 100T56 203Q56 261 88 303T174 367V370Q130 387 99 425T68 519Q68 574 92 614T155 679T246 716T350 728Q402 728 453 716T543 679T607 614T632 519Q632 464 603 426T526 371V368Z"  />
<glyph unicode="9" horiz-adv-x="700" d="M282 222Q236 222 193 237T115 283T61 357T40 458Q40 525 65 575T133 660T232 711T350 728Q412 728 468 712T567 662T635 579T660 460Q660 393 634 335T572 227L410 0H121L288 216L293 222H282ZM350 390Q382 390 402 410T423 461Q423 492 403 513T350 534Q316 534 296 513T275 461Q275 431 295 411T350 390Z"  />
<glyph unicode=":" horiz-adv-x="380" d="M66 115Q66 140 76 162T103 201T143 227T192 237Q216 237 238 228T277 202T304 163T314 115Q314 89 304 67T278 29T239 4T192 -6Q166 -6 143 3T103 29T76 67T66 115ZM66 409Q66 434 76 456T103 495T143 521T192 531Q216 531 238 522T277 496T304 457T314 409Q314 383 304 361T278 323T239 298T192 288Q166 288 143 297T103 323T76 361T66 409Z"  />
<glyph unicode=";" horiz-adv-x="380" d="M13 -120L95 193H313L199 -120H13ZM66 409Q66 434 76 456T103 495T143 521T192 531Q216 531 238 522T277 496T304 457T314 409Q314 383 304 361T278 323T239 298T192 288Q166 288 143 297T103 323T76 361T66 409Z"  />
<glyph unicode="&lt;" horiz-adv-x="666" d="M78 235V369L588 572V410Q519 381 451 355T314 299L588 196V32L78 235Z"  />
<glyph unicode="=" horiz-adv-x="666" d="M610 472V328H56V472H610ZM610 282V138H56V282H610Z"  />
<glyph unicode="&gt;" horiz-adv-x="666" d="M588 369V235L78 32V196L352 299Q283 328 215 354T78 410V572L588 369Z"  />
<glyph unicode="?" horiz-adv-x="587" d="M304 -16Q278 -16 256 -7T216 19T190 57T180 105Q180 130 189 152T216 190T255 216T304 226Q330 226 352 217T392 191T418 152T428 105Q428 79 419 57T392 19T353 -6T304 -16ZM446 328Q425 315 418 303T410 278V252H197V289Q197 319 204 341T225 382T256 415T295 446L312 458Q328 469 336 479T345 502Q345 523 333 531T303 540Q270 540 256 517T242 462L27 490Q33 554 58 599T122 673T208 715T307 728Q353 728 401 718T488 683T552 618T577 518Q577 483 568 456T542 407T501 365T446 328Z"  />
<glyph unicode="@" horiz-adv-x="800" d="M617 534L598 426Q590 385 585 357T580 313Q580 302 585 293T604 283Q613 283 623 288T641 305T656 340T662 396Q662 452 644 494T594 564T516 606T415 620Q357 620 309 600T226 545T172 460T153 354Q153 294 173 246T231 163T319 111T431 92Q488 92 542 110T636 160L711 75Q599 -18 417 -18Q333 -18 261 9T137 86T55 203T25 353Q25 433 56 501T140 619T263 697T414 726Q487 726 554 705T671 641T752 537T782 394Q782 341 768 298T726 225T658 177T567 160Q527 160 500 175T461 219H459Q448 198 419 179T346 160Q312 160 285 173T238 211T208 268T197 339Q197 382 210 422T247 493T305 543T383 562Q422 562 445 545T474 510H476L481 534H617ZM405 443Q393 443 382 435T363 412T350 380T345 343Q345 317 354 300T386 283Q400 283 411 292T430 315T442 346T446 380Q446 406 438 424T405 443Z"  />
<glyph unicode="A" horiz-adv-x="776" d="M263 708H516L792 0H533L496 104H271L236 0H-16L263 708ZM386 461L328 286H443L386 461Z"  />
<glyph unicode="B" horiz-adv-x="693" d="M288 523V436H352Q377 436 393 447T409 483Q409 503 392 513T347 523H288ZM288 283V187H359Q387 187 404 199T422 236Q422 250 415 259T396 273T373 281T349 283H288ZM529 368Q554 362 578 349T621 315T651 267T662 207Q662 149 639 110T577 46T489 11T387 0H66V708H357Q400 708 448 702T538 676T606 619T633 520Q633 463 605 426T529 371V368Z"  />
<glyph unicode="C" horiz-adv-x="696" d="M34 354Q34 439 64 508T146 626T268 701T419 728Q501 728 574 702T696 630L550 454Q530 480 500 493T433 507Q403 507 377 497T332 466T301 418T290 354Q290 319 301 292T332 244T378 214T433 203Q474 203 503 220T550 260L696 85Q648 37 578 9T419 -20Q339 -20 269 7T146 83T64 201T34 354Z"  />
<glyph unicode="D" horiz-adv-x="788" d="M66 0V708H330Q414 708 490 692T625 635T719 527T754 358Q754 265 721 197T631 86T502 21T350 0H66ZM295 506V204H339Q423 204 468 240T513 360Q513 429 468 467T348 506H295Z"  />
<glyph unicode="E" horiz-adv-x="603" d="M66 708H553V510H290V449H537V264H290V198H570V0H66V708Z"  />
<glyph unicode="F" horiz-adv-x="581" d="M299 434H515V240H300V0H66V708H544V509H299V434Z"  />
<glyph unicode="G" horiz-adv-x="762" d="M426 -18Q342 -18 271 8T147 82T64 200T34 354Q34 439 64 508T146 626T268 701T418 728Q501 728 575 701T697 627L558 460Q536 486 506 501T432 517Q403 517 376 506T327 473T293 421T280 354Q280 280 318 234T442 187Q457 187 473 189T498 197V251H384V438H709V51Q684 36 652 24T583 2T506 -12T426 -18Z"  />
<glyph unicode="H" horiz-adv-x="802" d="M498 269H304V0H66V708H303V468H497V708H736V0H498V269Z"  />
<glyph unicode="I" horiz-adv-x="372" d="M66 708H306V0H66V708Z"  />
<glyph unicode="J" horiz-adv-x="573" d="M248 -20Q200 -20 157 -6T80 32T20 89T-15 160L189 238Q193 222 203 210T232 197Q255 197 263 212T271 252V708H510V262Q510 214 500 164T460 73T380 6T248 -20Z"  />
<glyph unicode="K" horiz-adv-x="763" d="M300 282H298V0H66V708H297V447H299L488 708H768L502 384L781 0H489L300 282Z"  />
<glyph unicode="L" horiz-adv-x="549" d="M66 708H306V204H541V0H66V708Z"  />
<glyph unicode="M" horiz-adv-x="1008" d="M277 400L288 0H66V708H377L505 327H510L621 708H942V0H711L718 398L712 399L580 0H412L282 400H277Z"  />
<glyph unicode="N" horiz-adv-x="791" d="M66 708H303L505 349H509L499 708H725V0H482L286 338H282L292 0H66V708Z"  />
<glyph unicode="O" horiz-adv-x="855" d="M34 358Q34 443 64 511T146 628T271 702T427 728Q511 728 583 702T708 628T791 512T821 358Q821 273 791 203T708 84T583 7T427 -20Q343 -20 271 7T147 83T64 203T34 358ZM287 358Q287 323 297 294T326 244T371 212T427 200Q457 200 482 211T527 244T556 294T567 358Q567 392 557 420T527 468T483 499T427 510Q397 510 371 499T327 469T298 421T287 358Z"  />
<glyph unicode="P" horiz-adv-x="684" d="M303 228V0H66V708H370Q424 708 476 697T569 658T635 585T660 470Q660 404 636 358T571 283T478 241T370 228H303ZM303 523V409H353Q380 409 402 422T425 468Q425 485 419 495T403 512T379 520T353 523H303Z"  />
<glyph unicode="Q" horiz-adv-x="864" d="M740 180L852 187V0H414Q330 0 260 23T140 93T62 206T34 362Q34 443 64 510T146 626T271 701T427 728Q511 728 582 702T704 628T785 515T814 371Q814 341 808 312T791 259T767 215T740 184V180ZM287 358Q287 323 297 294T326 244T371 212T427 200Q457 200 482 211T527 244T556 294T567 358Q567 392 557 420T527 468T483 499T427 510Q397 510 371 499T327 469T298 421T287 358Z"  />
<glyph unicode="R" horiz-adv-x="714" d="M66 708H371Q423 708 474 698T566 661T632 590T657 478Q657 413 625 364T533 287L713 0H439L303 253H296V0H66V708ZM294 409H341Q353 409 367 411T394 419T415 437T424 468Q424 487 417 498T399 514T375 521T351 523H294V409Z"  />
<glyph unicode="S" horiz-adv-x="617" d="M298 -20Q255 -20 214 -13T134 9T61 43T0 87L145 245Q170 218 211 197T297 176Q317 176 333 183T350 209Q350 219 345 226T325 240T287 257T225 278Q189 290 156 306T98 347T57 404T42 485Q42 551 69 597T138 672T234 715T339 728Q409 728 481 701T609 623L461 472Q437 502 402 517T339 533Q313 533 297 526T281 501Q281 485 297 477T351 457Q389 445 431 429T508 388T567 325T590 233Q590 169 565 122T498 43T404 -4T298 -20Z"  />
<glyph unicode="T" horiz-adv-x="600" d="M419 0H181V507H7V708H593V507H419V0Z"  />
<glyph unicode="U" horiz-adv-x="775" d="M384 -20Q301 -20 240 3T137 66T76 160T56 278V708H294V304Q294 253 318 225T388 196Q433 196 457 224T482 304V708H719V278Q719 215 698 161T634 66T530 3T384 -20Z"  />
<glyph unicode="V" horiz-adv-x="739" d="M-16 708H253L370 270H374L486 708H755L499 0H235L-16 708Z"  />
<glyph unicode="W" horiz-adv-x="1077" d="M433 0H193L0 708H252L328 310H332L414 708H663L752 310H756L833 708H1077L880 0H640L540 400H536L433 0Z"  />
<glyph unicode="X" horiz-adv-x="800" d="M393 207L270 0H-12L241 369L1 708H288L400 522L507 708H787L551 372L812 0H521L393 207Z"  />
<glyph unicode="Y" horiz-adv-x="738" d="M481 0H243V290L-24 708H263L375 500L482 708H762L481 290V0Z"  />
<glyph unicode="Z" horiz-adv-x="672" d="M44 199L309 511H55V708H620V536L338 203H628V0H44V199Z"  />
<glyph unicode="[" horiz-adv-x="360" d="M42 732H294V595H207V-19H294V-156H42V732Z"  />
<glyph unicode="\" horiz-adv-x="455" d="M-3 719L155 767L458 -11L301 -59L-3 719Z"  />
<glyph unicode="]" horiz-adv-x="360" d="M318 -156H66V-19H153V595H66V732H318V-156Z"  />
<glyph unicode="^" horiz-adv-x="714" d="M77 343L280 708H434Q485 616 534 526T635 343H457L356 530L255 343H77Z"  />
<glyph unicode="_" horiz-adv-x="500" d="M0 -75H500V-185H0V-75Z"  />
<glyph unicode="`" horiz-adv-x="360" d="M-36 728H176L287 584H118L-36 728Z"  />
<glyph unicode="a" horiz-adv-x="591" d="M334 218Q283 218 252 207T221 166Q221 155 226 148T239 135T256 128T274 125Q307 125 327 146T347 200V218H334ZM332 334Q332 358 316 369T272 381Q240 381 212 368T161 336L46 450Q94 496 160 521T296 546Q371 546 420 525T497 467T537 381T549 277V0H340V42H338Q318 12 281 -1T209 -14Q178 -14 146 -5T87 24T43 76T26 155Q26 210 54 244T127 298T225 325T332 332V334Z"  />
<glyph unicode="b" horiz-adv-x="694" d="M662 265Q662 213 647 163T601 74T526 10T422 -14Q373 -14 329 4T262 55H260V0H53V756H283V484H285Q308 511 346 525T422 540Q481 540 526 516T601 453T646 365T662 265ZM448 265Q448 300 426 326T362 352Q321 352 297 326T272 265Q272 228 296 202T362 176Q404 176 426 201T448 265Z"  />
<glyph unicode="c" horiz-adv-x="526" d="M339 -20Q272 -20 216 0T119 57T55 146T32 263Q32 327 55 379T121 469T219 526T342 546Q369 546 396 542T449 529T496 511T533 489L418 323Q406 337 387 344T349 352Q332 352 316 347T288 330T267 302T259 263Q259 241 267 225T287 198T316 182T349 176Q369 176 388 183T419 204L535 42Q502 16 450 -2T339 -20Z"  />
<glyph unicode="d" horiz-adv-x="694" d="M32 265Q32 316 47 365T93 453T168 516T272 540Q310 540 348 526T409 484H411V756H641V0H434V55H432Q409 23 365 5T272 -14Q213 -14 168 10T93 73T48 163T32 265ZM246 265Q246 227 268 202T332 176Q373 176 397 202T422 265Q422 300 398 326T332 352Q290 352 268 326T246 265Z"  />
<glyph unicode="e" horiz-adv-x="630" d="M403 333Q403 361 383 379T327 397Q289 397 268 376T244 333H403ZM602 258Q602 245 602 232T600 209H246Q247 195 255 184T276 165T304 153T336 149Q368 149 389 160T422 186L586 103Q551 46 485 13T330 -20Q273 -20 219 -2T124 51T57 140T32 263Q32 328 55 380T117 469T210 526T325 546Q387 546 438 525T525 465T582 373T602 258Z"  />
<glyph unicode="f" horiz-adv-x="424" d="M426 598Q417 602 405 604T381 607Q347 607 334 586T320 533V526H431V361H320V0H90V361H0V526H90V538Q90 587 101 632T141 711T216 766T336 786Q359 786 389 783T441 771L426 598H426Z"  />
<glyph unicode="g" horiz-adv-x="697" d="M32 265Q32 316 47 365T93 453T168 516T272 540Q314 540 354 524T421 473H424V526H641V54Q641 -32 613 -89T539 -179T433 -226T313 -240Q238 -240 163 -221T32 -163L133 -10Q171 -39 213 -52T293 -66Q318 -66 340 -60T380 -41T407 -10T417 33V56H414Q395 34 358 17T272 0Q211 0 166 21T91 79T47 164T32 265ZM246 265Q246 227 268 202T332 176Q373 176 397 202T422 265Q422 300 398 326T332 352Q290 352 268 326T246 265Z"  />
<glyph unicode="h" horiz-adv-x="666" d="M430 540Q485 540 521 520T579 469T609 398T618 320V0H386V280Q386 320 374 336T336 352Q316 352 300 335T284 279V0H53V756H284V468H286Q306 497 343 518T430 540Z"  />
<glyph unicode="i" horiz-adv-x="339" d="M54 526H285V0H54V526ZM50 678Q50 702 59 723T85 761T124 786T171 796Q195 796 216 787T253 761T279 724T289 678Q289 653 280 632T254 595T216 570T171 561Q146 561 124 570T86 594T60 631T50 678Z"  />
<glyph unicode="j" horiz-adv-x="346" d="M292 12Q292 -39 282 -84T244 -164T171 -219T55 -240Q35 -240 7 -237T-41 -228L-29 -40Q-18 -43 -9 -44T8 -45Q34 -45 47 -31T61 19V526H292V12ZM57 678Q57 702 66 723T92 761T131 786T177 796Q201 796 222 787T260 761T286 724T296 678Q296 653 287 632T261 595T223 570T177 561Q153 561 131 570T93 594T67 631T57 678Z"  />
<glyph unicode="k" horiz-adv-x="670" d="M284 229V0H53V756H284V325H287L412 526H680L510 289L679 0H410L287 229H284Z"  />
<glyph unicode="l" horiz-adv-x="342" d="M53 756H289V0H53V756Z"  />
<glyph unicode="m" horiz-adv-x="976" d="M375 0V276Q375 316 365 334T332 352Q315 352 300 336T284 279V0H53V526H278V468H280Q290 481 304 493T337 516T379 533T429 540Q481 540 519 522T579 464Q605 496 643 518T739 540Q795 540 831 518T889 463T919 392T928 320V0H697V280Q697 323 687 337T654 352Q634 352 620 334T606 279V0H375Z"  />
<glyph unicode="n" horiz-adv-x="666" d="M53 526H278V468H280Q300 497 339 518T430 540Q485 540 521 520T579 469T609 398T618 320V0H386V280Q386 320 374 336T336 352Q313 352 299 334T284 280V0H53V526Z"  />
<glyph unicode="o" horiz-adv-x="664" d="M632 265Q632 197 608 144T542 55T446 -1T331 -20Q272 -20 218 -1T122 54T57 144T32 265Q32 332 56 384T122 473T217 527T331 546Q391 546 445 528T541 473T607 385T632 265ZM331 352Q293 352 270 326T246 265Q246 228 270 202T332 176Q370 176 394 202T418 265Q418 300 394 326T331 352Z"  />
<glyph unicode="p" horiz-adv-x="694" d="M423 -14Q384 -14 346 0T284 41H282V-240H53V526H270V473H272Q301 506 342 523T422 540Q481 540 526 516T601 453T646 365T662 265Q662 213 647 163T601 74T527 10T423 -14ZM448 265Q448 300 426 326T362 352Q321 352 297 326T272 265Q272 228 296 202T362 176Q404 176 426 201T448 265Z"  />
<glyph unicode="q" horiz-adv-x="694" d="M271 -14Q212 -14 168 10T93 73T48 163T32 265Q32 316 47 365T93 453T168 516T272 540Q311 540 352 523T422 473H424V526H641V-240H412V41H410Q386 15 348 1T271 -14ZM246 265Q246 227 268 202T332 176Q373 176 397 202T422 265Q422 300 398 326T332 352Q290 352 268 326T246 265Z"  />
<glyph unicode="r" horiz-adv-x="445" d="M53 526H275V466H277Q294 498 327 519T406 540Q433 540 450 535L432 339Q421 342 408 343T383 345Q338 345 311 319T284 255V0H53V526Z"  />
<glyph unicode="s" horiz-adv-x="513" d="M484 167Q484 114 462 78T405 21T329 -10T251 -20Q183 -20 118 -1T4 55L117 186Q141 164 173 151T236 137Q248 137 258 141T269 158Q269 171 251 178T186 197Q161 203 135 214T88 245T52 291T38 357Q38 408 60 444T117 502T192 535T269 546Q330 546 390 528T498 478L390 349Q365 365 339 374T288 383Q271 383 260 379T249 361Q249 351 261 346T319 331Q350 325 379 313T432 281T470 233T484 167Z"  />
<glyph unicode="t" horiz-adv-x="421" d="M282 -14Q176 -14 125 31T74 173V361H0V526H73V644H297V526H411V361H297V221Q297 183 313 170T359 156Q370 156 382 158T401 162V4Q383 -4 351 -9T282 -14Z"  />
<glyph unicode="u" horiz-adv-x="663" d="M610 0H385V58H383Q363 29 324 8T233 -14Q177 -14 141 5T84 56T54 127T45 206V526H277V248Q277 208 289 192T327 176Q350 176 364 194T379 248V526H610V0Z"  />
<glyph unicode="v" horiz-adv-x="638" d="M-8 526H248L323 242H327L399 526H646L443 0H192L-8 526Z"  />
<glyph unicode="w" horiz-adv-x="973" d="M404 0H175L-5 526H242L308 254H312L380 526H602L675 254H678L742 526H978L796 0H566L485 270H483L404 0Z"  />
<glyph unicode="x" horiz-adv-x="675" d="M338 119L252 0H-8L195 270L6 526H268L344 416L419 526H673L484 270L683 0H419L338 119Z"  />
<glyph unicode="y" horiz-adv-x="638" d="M205 20L-8 526H248L326 249H330L399 526H646L430 -32Q411 -81 387 -119T331 -185T256 -226T154 -240Q136 -240 117 -239T81 -235T48 -230T23 -224L52 -34Q65 -39 83 -42T117 -46Q155 -46 173 -31T201 9L205 20Z"  />
<glyph unicode="z" horiz-adv-x="557" d="M33 161L230 355H38V526H517V376L304 171H523V0H33V161Z"  />
<glyph unicode="{" horiz-adv-x="360" d="M0 359Q30 359 48 372T66 429V561Q66 595 74 626T100 680T146 718T214 732H310V595H276Q247 595 236 576T225 535V400Q225 371 216 351T195 317T167 297T140 289V287Q152 285 167 279T194 259T216 226T225 176V41Q225 19 236 0T276 -19H310V-156H214Q174 -156 146 -142T100 -105T74 -50T66 15V147Q66 190 48 203T0 217V359Z"  />
<glyph unicode="|" horiz-adv-x="269" d="M49 750H221V-250H49V750Z"  />
<glyph unicode="}" horiz-adv-x="360" d="M360 217Q330 217 313 204T295 147V15Q295 -19 287 -50T260 -104T214 -142T146 -156H50V-19H84Q113 -19 123 0T134 41V176Q134 205 143 225T164 259T192 278T219 287V289Q207 290 192 297T165 317T143 350T134 400V535Q134 557 124 576T84 595H50V732H146Q186 732 214 718T260 681T286 626T295 561V429Q295 386 312 373T360 359V217Z"  />
<glyph unicode="~" horiz-adv-x="666" d="M355 384Q376 370 389 363T412 353T430 350T449 349Q473 349 495 367T533 416L607 281Q572 223 530 199T448 175Q416 175 388 183T327 213Q307 225 293 232T269 242T250 246T234 247Q223 247 210 244T182 232T155 212T133 181L59 316Q77 346 99 366T145 399T192 417T235 422Q272 422 298 413T355 384Z"  />
<glyph unicode="&#xA0;" horiz-adv-x="250" />
<glyph unicode="&#xA3;" horiz-adv-x="700" d="M553 495Q541 509 521 517T481 526Q457 526 442 520T417 504T405 480T401 451V442H546V280H401V193H652V0H80V193H172V280H80V442H172V470Q172 516 189 562T242 645T330 705T455 728Q536 728 594 705T687 647L553 495H553Z"  />
<glyph unicode="&#xA4;" horiz-adv-x="1000" d="M756 454Q773 425 783 389T793 309Q793 265 783 228T754 159L846 67L739 -41L642 56Q611 40 576 32T502 24Q467 24 433 31T360 58L261 -41L154 67L249 162Q232 192 223 228T213 309Q213 388 247 451L154 544L262 651L358 556Q424 590 502 590Q579 590 645 558L738 651L846 544L756 454ZM502 410Q481 410 464 402T433 379T413 347T406 309Q406 266 433 236T502 206Q544 206 571 236T598 309Q598 329 591 347T571 379T541 401T502 410Z"  />
<glyph unicode="&#xA5;" horiz-adv-x="700" d="M644 458V318H460V271H644V131H460V0H244V131H63V271H244V318H63V458H163L5 708H258L356 491L454 708H701L544 458H644Z"  />
<glyph unicode="&#xA6;" horiz-adv-x="269" d="M221 718V312H49V718H221ZM221 200V-206H49V200H221Z"  />
<glyph unicode="&#xA7;" horiz-adv-x="650" d="M539 158Q562 142 573 114T584 56Q584 -5 557 -45T489 -110T397 -144T301 -154Q259 -154 217 -145T137 -119T65 -78T10 -21L167 109Q182 87 200 72T238 48T277 35T312 31Q326 31 338 36T350 52Q350 60 346 66T331 77T300 89T249 105Q197 120 158 136T93 173T53 223T39 292Q39 337 58 368T110 420Q89 440 79 468T69 530Q69 584 95 622T160 683T244 716T330 727Q427 727 496 694T601 597L435 487Q420 513 394 528T344 543Q327 543 314 537T301 520Q301 514 305 509T320 499T350 487T399 472Q448 457 486 440T550 401T590 348T604 278Q604 240 588 209T539 158ZM250 345Q243 341 239 333T234 317Q234 295 256 285T312 263L393 235Q406 243 406 261Q406 280 385 292T332 316L250 345Z"  />
<glyph unicode="&#xA8;" horiz-adv-x="360" d="M205 678Q205 698 213 716T235 747T267 769T306 777Q326 777 344 769T375 748T397 716T405 678Q405 657 397 640T376 609T344 588T306 580Q264 580 235 608T205 678ZM-44 678Q-44 698 -36 716T-14 747T18 769T57 777Q77 777 95 769T126 748T148 716T156 678Q156 657 148 640T127 609T95 588T57 580Q15 580 -14 608T-44 678Z"  />
<glyph unicode="&#xA9;" horiz-adv-x="800" d="M498 435Q484 454 463 462T417 471Q393 471 375 461T345 435T326 397T319 354Q319 332 325 311T345 274T377 247T423 236Q446 236 467 244T503 269L595 181Q563 149 518 132T421 114Q370 114 325 130T246 176T193 251T173 353Q173 408 193 452T246 527T325 574T421 591Q473 591 520 571T596 515L498 435ZM20 353Q20 432 50 500T131 620T252 700T401 730Q479 730 548 701T668 620T750 501T780 353Q780 275 750 207T669 87T548 7T401 -22Q322 -22 253 7T132 87T50 206T20 353ZM80 353Q80 287 104 229T172 128T273 59T397 34Q463 34 521 59T624 127T694 229T720 353Q720 419 695 477T627 579T525 648T401 674Q335 674 277 649T175 580T106 478T80 353Z"  />
<glyph unicode="&#xAB;" horiz-adv-x="580" d="M247 274L422 522L552 439L437 274L552 109L422 26L247 274ZM17 274L193 522L322 439L207 274L322 109L193 26L17 274Z"  />
<glyph unicode="&#xAC;" horiz-adv-x="666" d="M447 314H37V458H605V143H447V314Z"  />
<glyph unicode="&#xAD;" horiz-adv-x="336" d="M30 371H306V199H30V371Z"  />
<glyph unicode="&#xAE;" horiz-adv-x="600" d="M305 521Q317 521 325 527T333 544Q333 552 325 557T305 562H279V521H305ZM339 365L295 459H279V365H191V631H305Q326 631 348 627T387 613T415 587T426 545Q426 490 378 471L439 365H339ZM72 492Q72 539 90 580T139 652T212 701T301 719Q348 719 389 701T461 653T510 581T528 492Q528 445 510 404T462 333T390 285T301 267Q254 267 212 284T139 332T90 404T72 492ZM108 492Q108 453 123 418T164 357T226 315T301 300Q341 300 375 315T436 356T477 418T492 492Q492 532 477 567T436 628T376 669T301 684Q261 684 226 669T165 628T123 567T108 492Z"  />
<glyph unicode="&#xB0;" horiz-adv-x="440" d="M399 554Q399 515 386 483T348 426T292 389T220 375Q181 375 149 388T92 426T55 482T41 554Q41 593 54 625T92 682T148 719T220 733Q259 733 291 720T348 682T385 626T399 554ZM317 554Q317 595 289 623T220 651Q179 651 151 623T123 554Q123 513 151 485T220 457Q261 457 289 485T317 554Z"  />
<glyph unicode="&#xB1;" horiz-adv-x="666" d="M251 606H415V485H635V333H415V212H251V333H31V485H251V606ZM31 182H635V30H31V182Z"  />
<glyph unicode="&#xB2;" horiz-adv-x="450" d="M53 439V556L235 703Q243 710 248 717T254 736Q254 748 247 757T222 766Q204 766 192 752T178 713L35 729Q39 773 57 804T103 856T164 887T234 897Q267 897 299 889T356 864T398 819T414 752Q414 725 407 704T387 667T360 637T327 611L261 565H415V439H53Z"  />
<glyph unicode="&#xB3;" horiz-adv-x="450" d="M349 673Q383 662 399 635T416 574Q416 535 400 508T359 462T301 436T236 428Q203 428 171 436T112 460T66 503T37 565L173 598Q177 581 190 567T226 553Q242 553 254 559T266 583Q266 603 249 609T203 616H161V719H208Q234 719 246 726T259 750Q259 761 251 769T224 777Q210 777 197 767T180 737L46 768Q56 804 77 829T124 869T180 890T239 897Q268 897 298 890T352 868T392 830T408 772Q408 730 392 709T349 674V673Z"  />
<glyph unicode="&#xB5;" horiz-adv-x="746" d="M716 4Q700 -4 670 -9T605 -14Q545 -14 516 6T470 58H468Q463 49 455 37T433 13T401 -6T361 -14Q323 -14 302 4H300V-224H64V526H300V249Q300 219 309 198T348 176Q364 176 374 183T391 202T399 225T402 249V526H638V213Q638 180 650 170T685 160Q690 160 699 162T716 166V4Z"  />
<glyph unicode="&#xB6;" horiz-adv-x="646" d="M432 566H380V-133H226V330Q126 335 70 382T13 515Q13 575 35 612T93 671T176 700T273 708H587V-133H432V566Z"  />
<glyph unicode="&#xB7;" horiz-adv-x="360" d="M48 289Q48 316 58 339T87 380T130 408T182 419Q208 419 231 409T273 381T301 340T312 289Q312 262 302 238T273 197T232 170T182 160Q155 160 131 170T88 197T59 238T48 289Z"  />
<glyph unicode="&#xBB;" horiz-adv-x="580" d="M258 109L373 274L258 439L388 522L563 274L388 26L258 109ZM28 109L143 274L28 439L158 522L333 274L158 26L28 109Z"  />
<glyph unicode="&#xBD;" horiz-adv-x="1000" d="M198 550L123 498L52 608L210 708H349V262H198V550ZM796 264Q804 271 809 278T815 297Q815 309 808 318T783 327Q765 327 753 313T739 274L596 290Q600 334 618 365T664 417T725 448T795 458Q828 458 860 450T917 425T959 380T975 313Q975 286 968 265T948 228T921 198T888 172L822 126H976V0H614V117L796 264ZM287 13L633 739L732 694L386 -27L287 13Z"  />
<glyph unicode="&#x401;" horiz-adv-x="603" d="M66 708H553V510H290V449H537V264H290V198H570V0H66V708ZM336 858Q336 878 344 896T366 927T398 949T437 957Q457 957 475 949T506 928T528 896T536 858Q536 837 528 820T507 789T475 768T437 760Q395 760 366 788T336 858ZM87 858Q87 878 95 896T117 927T149 949T188 957Q208 957 226 949T257 928T279 896T287 858Q287 837 279 820T258 789T226 768T188 760Q146 760 117 788T87 858Z"  />
<glyph unicode="&#x402;" horiz-adv-x="845" d="M580 -10Q564 -10 546 -9T511 -7T480 -3T459 1L477 173Q486 170 497 169T519 167Q547 167 563 175T580 208Q580 254 493 254Q487 254 477 253T457 250T436 246T419 239V0H181V514H7V708H593V514H419V408Q447 416 486 423T574 430Q697 430 759 370T821 201Q821 143 800 103T745 37T668 1T580 -10Z"  />
<glyph unicode="&#x403;" horiz-adv-x="548" d="M66 708H541V507H304V0H66V708ZM170 764L281 908H493L339 764H170Z"  />
<glyph unicode="&#x404;" horiz-adv-x="696" d="M419 -20Q339 -20 269 7T146 83T64 201T34 354Q34 439 64 508T146 626T268 701T419 728Q501 728 574 702T696 630L556 458Q514 514 428 514Q383 514 352 495T308 449H500V264H305Q319 232 351 214T433 196Q475 196 508 213T559 253L696 85Q648 37 578 9T419 -20Z"  />
<glyph unicode="&#x405;" horiz-adv-x="617" d="M298 -20Q255 -20 214 -13T134 9T61 43T0 87L145 245Q170 218 211 197T297 176Q317 176 333 183T350 209Q350 219 345 226T325 240T287 257T225 278Q189 290 156 306T98 347T57 404T42 485Q42 551 69 597T138 672T234 715T339 728Q409 728 481 701T609 623L461 472Q437 502 402 517T339 533Q313 533 297 526T281 501Q281 485 297 477T351 457Q389 445 431 429T508 388T567 325T590 233Q590 169 565 122T498 43T404 -4T298 -20Z"  />
<glyph unicode="&#x406;" horiz-adv-x="372" d="M66 708H306V0H66V708Z"  />
<glyph unicode="&#x407;" horiz-adv-x="372" d="M66 708H306V0H66V708ZM213 858Q213 878 221 896T243 927T275 949T314 957Q334 957 352 949T383 928T405 896T413 858Q413 837 405 820T384 789T352 768T314 760Q272 760 243 788T213 858ZM-36 858Q-36 878 -28 896T-6 927T26 949T65 957Q85 957 103 949T134 928T156 896T164 858Q164 837 156 820T135 789T103 768T65 760Q23 760 -6 788T-36 858Z"  />
<glyph unicode="&#x408;" horiz-adv-x="573" d="M248 -20Q200 -20 157 -6T80 32T20 89T-15 160L189 238Q193 222 203 210T232 197Q255 197 263 212T271 252V708H510V262Q510 214 500 164T460 73T380 6T248 -20Z"  />
<glyph unicode="&#x409;" horiz-adv-x="1145" d="M123 -7Q107 -7 89 -6T55 -3T25 1T4 5L19 198Q28 195 39 194T61 192Q78 192 95 197T125 223T146 284T154 394V708H764V480H831Q886 480 938 469T1031 430T1096 357T1121 242Q1121 176 1096 130T1030 55T937 13T831 0H526V509H382V429Q382 300 366 216T317 82T236 13T123 -7ZM814 185Q841 185 863 198T886 244Q886 276 865 287T814 299H764V185H814Z"  />
<glyph unicode="&#x40A;" horiz-adv-x="1125" d="M66 708H304V468H498V708H736V468H825Q877 468 927 457T1015 419T1077 348T1101 236Q1101 172 1077 128T1014 55T926 13T825 0H498V277H304V0H66V708ZM798 187Q823 187 842 199T862 241Q862 270 843 280T798 291H736V187H798Z"  />
<glyph unicode="&#x40B;" horiz-adv-x="867" d="M181 514H7V708H593V514H419V408Q447 416 486 423T574 430Q696 430 755 380T814 213V0H576V145Q576 175 572 193T557 222T531 235T493 239Q487 239 477 238T457 235T436 231T419 224V0H181V514Z"  />
<glyph unicode="&#x40C;" horiz-adv-x="763" d="M66 708H298V447H299L488 708H768L502 384L781 0H489L300 282H298V0H66V708ZM280 764L391 908H603L449 764H280Z"  />
<glyph unicode="&#x40E;" horiz-adv-x="735" d="M186 -15Q138 -15 107 -10T55 1L84 192Q97 187 119 183T157 179Q194 179 214 193T246 230L248 234L-20 708H256L377 444L486 708H755L484 177Q433 78 362 32T186 -15ZM372 763Q336 763 304 770T246 795T203 841T177 911L290 933Q293 906 314 891T372 876Q409 876 430 891T454 933L567 911Q559 870 541 842T498 796T440 771T372 763Z"  />
<glyph unicode="&#x40F;" horiz-adv-x="802" d="M298 0H66V708H304V201H498V708H736V0H504V-135H298V0Z"  />
<glyph unicode="&#x410;" horiz-adv-x="776" d="M263 708H516L792 0H533L496 104H271L236 0H-16L263 708ZM443 286L386 461L328 286H443Z"  />
<glyph unicode="&#x411;" horiz-adv-x="685" d="M66 708H607V519H296V457H385Q437 457 487 446T575 409T637 340T661 230Q661 168 637 124T574 53T486 13T385 0H66V708ZM358 183Q383 183 402 194T422 235Q422 264 403 274T358 284H296V183H358Z"  />
<glyph unicode="&#x412;" horiz-adv-x="693" d="M66 708H357Q400 708 448 702T538 676T606 619T633 520Q633 463 605 426T529 371V368Q554 362 578 349T621 315T651 267T662 207Q662 149 639 110T577 46T489 11T387 0H66V708ZM359 187Q387 187 404 199T422 236Q422 250 415 259T396 273T373 281T349 283H288V187H359ZM352 436Q377 436 393 447T409 483Q409 503 392 513T347 523H288V436H352Z"  />
<glyph unicode="&#x413;" horiz-adv-x="548" d="M66 708H541V507H304V0H66V708Z"  />
<glyph unicode="&#x414;" horiz-adv-x="843" d="M10 201H75Q94 228 108 261T131 334T146 424T151 536V708H757V201H833V-135H627V0H216V-135H10V201ZM519 201V509H381V500Q381 387 364 315T323 201H519Z"  />
<glyph unicode="&#x415;" horiz-adv-x="603" d="M66 708H553V510H290V449H537V264H290V198H570V0H66V708Z"  />
<glyph unicode="&#x416;" horiz-adv-x="1120" d="M226 384L-5 708H265L439 427H441V708H678V427H680L854 708H1125L893 384L1138 0H855L681 302H679V0H441V302H439L264 0H-18L226 384Z"  />
<glyph unicode="&#x417;" horiz-adv-x="633" d="M310 -20Q248 -20 202 -13T118 9T52 43T-5 87L124 242Q136 228 150 216T181 195T221 181T274 176Q308 176 331 188T355 228Q355 260 327 270T252 280H184V444H265Q303 444 326 454T349 492Q349 505 343 513T326 525T305 531T283 533Q246 533 209 520T142 478L18 622Q45 647 75 667T141 700T218 721T311 728Q374 728 425 715T513 677T569 617T589 536Q589 504 580 478T555 430T519 395T476 375V371Q531 354 566 313T602 201Q602 144 576 102T507 33T413 -7T310 -20Z"  />
<glyph unicode="&#x418;" horiz-adv-x="817" d="M66 708H292V329H296L504 708H751V0H525V358H521L319 0H66V708Z"  />
<glyph unicode="&#x419;" horiz-adv-x="817" d="M66 708H292V329H296L504 708H751V0H525V358H521L319 0H66V708ZM405 763Q369 763 337 770T279 795T236 841T210 911L323 933Q326 906 347 891T405 876Q442 876 463 891T487 933L600 911Q592 870 574 842T531 796T473 771T405 763Z"  />
<glyph unicode="&#x41A;" horiz-adv-x="763" d="M66 708H298V447H299L488 708H768L502 384L781 0H489L300 282H298V0H66V708Z"  />
<glyph unicode="&#x41B;" horiz-adv-x="830" d="M123 -7Q107 -7 89 -6T55 -3T25 1T4 5L19 198Q28 195 39 194T61 192Q78 192 95 197T125 223T146 284T154 394V708H764V0H526V509H382V429Q382 300 366 216T317 82T236 13T123 -7Z"  />
<glyph unicode="&#x41C;" horiz-adv-x="1008" d="M66 708H377L505 327H510L621 708H942V0H711L718 398L712 399L580 0H412L282 400H277L288 0H66V708Z"  />
<glyph unicode="&#x41D;" horiz-adv-x="802" d="M66 708H304V468H498V708H736V0H498V269H304V0H66V708Z"  />
<glyph unicode="&#x41E;" horiz-adv-x="855" d="M427 -20Q343 -20 271 7T147 83T64 203T34 358Q34 443 64 511T146 628T271 702T427 728Q511 728 583 702T708 628T791 512T821 358Q821 273 791 203T708 84T583 7T427 -20ZM427 200Q457 200 482 211T527 244T556 294T567 358Q567 392 557 420T527 468T483 499T427 510Q397 510 371 499T327 469T298 421T287 358Q287 323 297 294T326 244T371 212T427 200Z"  />
<glyph unicode="&#x41F;" horiz-adv-x="802" d="M66 708H736V0H498V509H304V0H66V708Z"  />
<glyph unicode="&#x420;" horiz-adv-x="684" d="M66 708H370Q424 708 476 697T569 658T635 585T660 470Q660 404 636 358T571 283T478 241T370 228H303V0H66V708ZM353 409Q380 409 402 422T425 468Q425 485 419 495T403 512T379 520T353 523H303V409H353Z"  />
<glyph unicode="&#x421;" horiz-adv-x="696" d="M419 -20Q339 -20 269 7T146 83T64 201T34 354Q34 439 64 508T146 626T268 701T419 728Q501 728 574 702T696 630L550 454Q530 480 500 493T433 507Q403 507 377 497T332 466T301 418T290 354Q290 319 301 292T332 244T378 214T433 203Q474 203 503 220T550 260L696 85Q648 37 578 9T419 -20Z"  />
<glyph unicode="&#x422;" horiz-adv-x="600" d="M181 507H7V708H593V507H419V0H181V507Z"  />
<glyph unicode="&#x423;" horiz-adv-x="735" d="M186 -15Q138 -15 107 -10T55 1L84 192Q97 187 119 183T157 179Q194 179 214 193T246 230L248 234L-20 708H256L377 444L486 708H755L484 177Q433 78 362 32T186 -15Z"  />
<glyph unicode="&#x424;" horiz-adv-x="975" d="M369 67Q300 68 240 85T135 138Q84 178 57 237T30 365Q30 525 140 602Q183 631 241 646T369 663V728H606V663Q675 661 733 646T835 602Q945 525 945 365Q945 296 918 237T840 138Q795 103 735 86T606 67V-20H369V67ZM374 464Q317 456 293 430T268 365Q268 325 292 300T374 267V464ZM601 267Q658 275 682 300T707 365Q707 403 683 429T601 464V267Z"  />
<glyph unicode="&#x425;" horiz-adv-x="800" d="M241 369L1 708H288L400 522L507 708H787L551 372L812 0H521L393 207L270 0H-12L241 369Z"  />
<glyph unicode="&#x426;" horiz-adv-x="822" d="M606 0H66V708H304V201H498V708H736V201H812V-135H606V0Z"  />
<glyph unicode="&#x427;" horiz-adv-x="749" d="M445 240Q417 232 378 225T290 218Q168 218 109 268T50 435V708H284V503Q284 473 289 455T305 426T332 413T371 409Q377 409 387 410T407 413T428 417T445 424V708H683V0H445V240Z"  />
<glyph unicode="&#x428;" horiz-adv-x="1154" d="M66 708H304V201H458V708H696V201H850V708H1088V0H66V708Z"  />
<glyph unicode="&#x429;" horiz-adv-x="1174" d="M958 0H66V708H304V201H458V708H696V201H850V708H1088V201H1164V-135H958V0Z"  />
<glyph unicode="&#x42A;" horiz-adv-x="750" d="M131 513H7V708H369V480H436Q491 480 543 469T636 430T701 357T726 242Q726 176 701 130T635 55T542 13T436 0H131V513ZM419 185Q446 185 468 198T491 244Q491 276 470 287T419 299H369V185H419Z"  />
<glyph unicode="&#x42B;" horiz-adv-x="1032" d="M66 708H304V480H371Q426 480 478 469T571 430T636 357T661 242Q661 176 636 130T570 55T477 13T371 0H66V708ZM354 185Q381 185 403 198T426 244Q426 276 405 287T354 299H304V185H354ZM728 708H966V0H728V708Z"  />
<glyph unicode="&#x42C;" horiz-adv-x="685" d="M66 708H304V480H371Q426 480 478 469T571 430T636 357T661 242Q661 176 636 130T570 55T477 13T371 0H66V708ZM354 185Q381 185 403 198T426 244Q426 276 405 287T354 299H304V185H354Z"  />
<glyph unicode="&#x42D;" horiz-adv-x="696" d="M201 449H389Q373 480 340 497T263 514Q225 514 193 500T140 458L8 637Q57 679 127 703T277 728Q357 728 427 702T550 626T632 508T662 354Q662 270 632 202T549 84T425 7T274 -20Q185 -20 113 9T-7 87L130 255Q147 232 182 214T260 196Q306 196 340 214T391 264H201V449Z"  />
<glyph unicode="&#x42E;" horiz-adv-x="1164" d="M752 -20Q677 -20 615 1T505 62T426 155T382 273H304V0H66V708H304V464H387Q402 523 434 571T512 655T619 709T752 728Q839 728 908 700T1027 623T1103 506T1130 358Q1130 278 1104 209T1028 89T909 9T752 -20ZM752 197Q780 197 803 209T843 242T869 293T878 358Q878 429 844 471T752 513Q694 513 660 471T625 358Q625 323 634 294T659 243T699 209T752 197Z"  />
<glyph unicode="&#x42F;" horiz-adv-x="722" d="M168 273Q113 301 83 354T53 478Q53 545 78 589T144 660T239 697T349 708H656V0H419V233H397L271 0H0L168 273ZM424 409V523H359Q348 523 335 522T311 515T293 498T286 468Q286 449 294 438T315 420T342 411T369 409H424Z"  />
<glyph unicode="&#x430;" horiz-adv-x="591" d="M209 -14Q178 -14 146 -5T87 24T43 76T26 155Q26 210 54 244T127 298T225 325T332 332V334Q332 358 316 369T272 381Q240 381 212 368T161 336L46 450Q94 496 160 521T296 546Q371 546 420 525T497 467T537 381T549 277V0H340V42H338Q318 12 281 -1T209 -14ZM274 125Q307 125 327 146T347 200V218H334Q283 218 252 207T221 166Q221 155 226 148T239 135T256 128T274 125Z"  />
<glyph unicode="&#x431;" horiz-adv-x="667" d="M340 -20Q283 -20 235 -4T147 39Q87 86 63 148T39 306Q39 392 47 463T81 586T158 672T291 717L383 729Q411 733 428 737T455 746T470 759T478 778L631 736Q613 646 571 607T457 559L330 542Q306 539 283 533T241 514T208 477T189 417H192Q217 451 261 477T380 503Q428 503 473 488T555 441T613 363T635 251Q635 186 612 136T548 51T455 -2T340 -20ZM340 172Q378 172 402 198T426 261Q426 296 402 322T339 348Q301 348 278 322T254 261Q254 224 278 198T340 172Z"  />
<glyph unicode="&#x432;" horiz-adv-x="638" d="M53 526H379Q411 526 447 522T513 502T564 460T584 386Q584 344 563 317T507 276V273Q526 269 543 259T575 234T597 199T606 154Q606 111 589 82T542 34T477 8T401 0H53V526ZM326 132Q349 132 363 143T377 174Q377 186 371 194T356 206T337 212T317 214H268V132H326ZM320 320Q341 320 354 330T368 361Q368 378 354 387T317 396H268V320H320Z"  />
<glyph unicode="&#x433;" horiz-adv-x="479" d="M53 526H464V355H285V0H53V526Z"  />
<glyph unicode="&#x434;" horiz-adv-x="710" d="M10 171H52Q64 186 74 203T91 246T101 306T105 389V526H634V171H700V-108H515V0H195V-108H10V171ZM402 171V358H318V332Q318 268 309 231T285 171H402Z"  />
<glyph unicode="&#x435;" horiz-adv-x="630" d="M403 333Q403 361 383 379T327 397Q289 397 268 376T244 333H403ZM602 258Q602 245 602 232T600 209H246Q247 195 255 184T276 165T304 153T336 149Q368 149 389 160T422 186L586 103Q551 46 485 13T330 -20Q273 -20 219 -2T124 51T57 140T32 263Q32 328 55 380T117 469T210 526T325 546Q387 546 438 525T525 465T582 373T602 258Z"  />
<glyph unicode="&#x436;" horiz-adv-x="937" d="M129 279L-6 526H247L352 300H355V526H582V300H585L690 526H943L808 279L947 0H693L585 234H582V0H355V234H352L244 0H-10L129 279Z"  />
<glyph unicode="&#x437;" horiz-adv-x="544" d="M31 475Q76 510 132 528T269 546Q374 546 435 508T497 400Q497 352 471 320T409 278V275Q454 263 483 233T512 148Q512 104 490 73T434 21T356 -10T272 -20Q214 -20 173 -14T102 2T48 28T2 61L105 186Q125 169 153 154T231 139Q259 139 278 147T297 173Q297 194 274 200T213 207H163V333H219Q250 333 269 339T288 364Q288 372 283 377T269 386T251 390T235 391Q204 391 175 383T122 355L31 475Z"  />
<glyph unicode="&#x438;" horiz-adv-x="700" d="M53 526H271V244H274L404 526H647V0H430V266H427L301 0H53V526Z"  />
<glyph unicode="&#x439;" horiz-adv-x="700" d="M53 526H271V244H274L404 526H647V0H430V266H427L301 0H53V526ZM350 584Q317 584 288 591T236 613T196 654T173 718L276 738Q278 713 297 700T350 686Q383 686 402 699T424 738L527 718Q520 680 504 655T465 614T412 591T350 584Z"  />
<glyph unicode="&#x43A;" horiz-adv-x="671" d="M53 526H285V315H288L413 526H681L511 279L680 0H411L288 219H285V0H53V526Z"  />
<glyph unicode="&#x43B;" horiz-adv-x="700" d="M121 -7Q109 -7 91 -6T55 -4T23 -2T2 2L13 172Q20 170 28 169T44 168Q57 168 69 172T92 191T108 237T114 319V526H647V0H415V355H334V286Q334 193 319 136T276 47T209 4T121 -7Z"  />
<glyph unicode="&#x43C;" horiz-adv-x="869" d="M53 526H342L437 243H440L523 526H816V0H605V295L600 296L502 0H358L261 297H258V0H53V526Z"  />
<glyph unicode="&#x43D;" horiz-adv-x="672" d="M53 526H285V360H387V526H619V0H387V189H285V0H53V526Z"  />
<glyph unicode="&#x43E;" horiz-adv-x="664" d="M331 -20Q272 -20 218 -1T122 54T57 144T32 265Q32 332 56 384T122 473T217 527T331 546Q391 546 445 528T541 473T607 385T632 265Q632 197 608 144T542 55T446 -1T331 -20ZM332 176Q370 176 394 202T418 265Q418 300 394 326T331 352Q293 352 270 326T246 265Q246 228 270 202T332 176Z"  />
<glyph unicode="&#x43F;" horiz-adv-x="672" d="M53 526H619V0H387V355H285V0H53V526Z"  />
<glyph unicode="&#x440;" horiz-adv-x="694" d="M53 526H270V473H272Q301 506 342 523T422 540Q481 540 526 516T601 453T646 365T662 265Q662 213 647 163T601 74T527 10T423 -14Q384 -14 346 0T284 41H282V-240H53V526ZM362 176Q404 176 426 201T448 265Q448 300 426 326T362 352Q321 352 297 326T272 265Q272 228 296 202T362 176Z"  />
<glyph unicode="&#x441;" horiz-adv-x="526" d="M339 -20Q272 -20 216 0T119 57T55 146T32 263Q32 327 55 379T121 469T219 526T342 546Q369 546 396 542T449 529T496 511T533 489L418 323Q406 337 387 344T349 352Q332 352 316 347T288 330T267 302T259 263Q259 241 267 225T287 198T316 182T349 176Q369 176 388 183T419 204L535 42Q502 16 450 -2T339 -20Z"  />
<glyph unicode="&#x442;" horiz-adv-x="540" d="M154 355H15V526H525V355H386V0H154V355Z"  />
<glyph unicode="&#x443;" horiz-adv-x="638" d="M154 -240Q136 -240 117 -239T81 -235T48 -230T23 -224L52 -34Q65 -39 83 -42T117 -46Q155 -46 173 -31T201 9L205 20L-8 526H248L326 249H330L399 526H646L430 -32Q411 -81 387 -119T331 -185T256 -226T154 -240Z"  />
<glyph unicode="&#x444;" horiz-adv-x="921" d="M32 271Q32 335 54 383T115 464T210 517T332 542V756H589V542Q655 536 710 517T805 465T867 383T889 271Q889 208 867 159T806 74T711 17T589 -11V-240H332V-11Q265 -5 210 16T116 73T54 158T32 271ZM582 175Q620 175 647 199T675 266Q675 308 648 331T582 355V175ZM339 355Q301 354 274 331T246 266Q246 223 273 199T339 175V355Z"  />
<glyph unicode="&#x445;" horiz-adv-x="675" d="M195 270L6 526H268L344 416L419 526H673L484 270L683 0H419L338 119L252 0H-8L195 270Z"  />
<glyph unicode="&#x446;" horiz-adv-x="695" d="M500 0H53V526H285V171H387V526H619V171H685V-108H500V0Z"  />
<glyph unicode="&#x447;" horiz-adv-x="650" d="M365 160Q348 155 321 153T243 150Q148 150 96 187T43 311V526H269V384Q269 339 285 327T333 314Q338 314 347 314T365 317V526H597V0H365V160Z"  />
<glyph unicode="&#x448;" horiz-adv-x="976" d="M53 526H285V171H372V526H604V171H691V526H923V0H53V526Z"  />
<glyph unicode="&#x449;" horiz-adv-x="999" d="M804 0H53V526H285V171H372V526H604V171H691V526H923V171H989V-108H804V0Z"  />
<glyph unicode="&#x44A;" horiz-adv-x="700" d="M125 355H15V526H357V370H456Q498 370 538 361T610 331T661 275T680 187Q680 136 661 101T610 43T538 10T456 0H125V355ZM403 143Q426 143 444 154T463 192Q463 219 445 227T403 236H352V143H403Z"  />
<glyph unicode="&#x44B;" horiz-adv-x="937" d="M53 526H285V370H374Q416 370 456 361T528 331T579 275T598 187Q598 136 579 101T528 43T456 10T374 0H53V526ZM331 143Q354 143 372 154T391 192Q391 219 373 227T331 236H280V143H331ZM652 526H884V0H652V526Z"  />
<glyph unicode="&#x44C;" horiz-adv-x="628" d="M53 526H285V370H384Q426 370 466 361T538 331T589 275T608 187Q608 136 589 101T538 43T466 10T384 0H53V526ZM331 143Q354 143 372 154T391 192Q391 219 373 227T331 236H280V143H331Z"  />
<glyph unicode="&#x44D;" horiz-adv-x="545" d="M206 -20Q144 -20 88 -2T-4 42L98 184Q128 150 194 150Q219 150 245 162T283 202H144V338H278Q269 358 247 370T198 383Q167 383 141 375T99 347L-2 489Q14 501 37 511T88 529T144 541T203 546Q273 546 330 526T428 469T491 380T513 263Q513 198 492 146T431 57T335 0T206 -20Z"  />
<glyph unicode="&#x44E;" horiz-adv-x="945" d="M619 -20Q569 -20 523 -6T439 34T374 100T334 189H285V0H53V526H285V355H339Q353 401 381 436T446 496T527 532T619 545Q677 545 730 527T824 472T889 384T913 264Q913 196 889 143T825 54T731 -1T619 -20ZM619 176Q654 176 676 200T699 264Q699 303 676 327T619 351Q584 351 562 327T540 264Q540 222 562 199T619 176Z"  />
<glyph unicode="&#x44F;" horiz-adv-x="643" d="M122 182Q81 202 56 239T30 339Q30 390 49 425T100 483T172 516T254 526H590V0H358V156H337L271 0H10L122 182ZM370 290V389H311Q287 389 267 378T247 340Q247 310 266 300T311 290H370Z"  />
<glyph unicode="&#x451;" horiz-adv-x="630" d="M403 333Q403 361 383 379T327 397Q289 397 268 376T244 333H403ZM602 258Q602 245 602 232T600 209H246Q247 195 255 184T276 165T304 153T336 149Q368 149 389 160T422 186L586 103Q551 46 485 13T330 -20Q273 -20 219 -2T124 51T57 140T32 263Q32 328 55 380T117 469T210 526T325 546Q387 546 438 525T525 465T582 373T602 258ZM355 678Q355 698 363 716T385 747T417 769T456 777Q476 777 494 769T525 748T547 716T555 678Q555 657 547 640T526 609T494 588T456 580Q414 580 385 608T355 678ZM106 678Q106 698 114 716T136 747T168 769T207 777Q227 777 245 769T276 748T298 716T306 678Q306 657 298 640T277 609T245 588T207 580Q165 580 136 608T106 678Z"  />
<glyph unicode="&#x452;" horiz-adv-x="666" d="M372 -240Q352 -240 328 -238T283 -230L298 -57Q305 -59 312 -60T327 -61Q361 -61 373 -40T386 13V266Q386 306 374 322T336 338Q316 338 300 321T284 265V0H53V560H0V680H53V756H284V680H401V560H284V454H286Q306 483 343 504T430 526Q485 526 521 506T579 455T609 384T618 306V8Q618 -42 607 -86T567 -165T492 -220T372 -240Z"  />
<glyph unicode="&#x453;" horiz-adv-x="479" d="M53 526H464V355H285V0H53V526ZM120 584L231 728H443L289 584H120Z"  />
<glyph unicode="&#x454;" horiz-adv-x="545" d="M339 -20Q267 -20 211 0T114 57T53 146T32 263Q32 327 54 379T116 469T214 526T342 546Q371 546 400 542T457 529T507 511T547 489L446 347Q430 366 405 374T351 383Q328 383 303 372T267 338H401V202H262Q273 176 298 163T355 150Q386 150 407 158T447 184L549 42Q514 16 458 -2T339 -20Z"  />
<glyph unicode="&#x455;" horiz-adv-x="513" d="M251 -20Q183 -20 118 -1T4 55L117 186Q141 164 173 151T236 137Q248 137 258 141T269 158Q269 171 251 178T186 197Q161 203 135 214T88 245T52 291T38 357Q38 408 60 444T117 502T192 535T269 546Q330 546 390 528T498 478L390 349Q365 365 339 374T288 383Q271 383 260 379T249 361Q249 351 261 346T319 331Q350 325 379 313T432 281T470 233T484 167Q484 114 462 78T405 21T329 -10T251 -20Z"  />
<glyph unicode="&#x456;" horiz-adv-x="339" d="M54 526H285V0H54V526ZM171 561Q146 561 124 570T86 594T60 631T50 678Q50 702 59 723T85 761T124 786T171 796Q195 796 216 787T253 761T279 724T289 678Q289 653 280 632T254 595T216 570T171 561Z"  />
<glyph unicode="&#x457;" horiz-adv-x="339" d="M196 678Q196 698 204 716T226 747T258 769T297 777Q317 777 335 769T366 748T388 716T396 678Q396 657 388 640T367 609T335 588T297 580Q255 580 226 608T196 678ZM-53 678Q-53 698 -45 716T-23 747T9 769T48 777Q68 777 86 769T117 748T139 716T147 678Q147 657 139 640T118 609T86 588T48 580Q6 580 -23 608T-53 678ZM54 526H285V0H54V526Z"  />
<glyph unicode="&#x458;" horiz-adv-x="346" d="M55 -240Q35 -240 7 -237T-41 -228L-29 -40Q-18 -43 -9 -44T8 -45Q34 -45 47 -31T61 19V526H292V12Q292 -39 282 -84T244 -164T171 -219T55 -240ZM177 561Q153 561 131 570T93 594T67 631T57 678Q57 702 66 723T92 761T131 786T177 796Q201 796 222 787T260 761T286 724T296 678Q296 653 287 632T261 595T223 570T177 561Z"  />
<glyph unicode="&#x459;" horiz-adv-x="990" d="M121 -7Q109 -7 91 -6T55 -4T23 -2T2 2L13 172Q20 170 28 169T44 168Q57 168 69 172T92 191T108 237T114 319V526H647V370H746Q788 370 828 361T900 331T951 275T970 187Q970 136 951 101T900 43T828 10T746 0H415V355H334V286Q334 193 319 136T276 47T209 4T121 -7ZM693 143Q716 143 734 154T753 192Q753 219 735 227T693 236H647V143H693Z"  />
<glyph unicode="&#x45A;" horiz-adv-x="962" d="M53 526H285V360H387V526H619V360H718Q760 360 800 352T872 323T923 268T942 182Q942 133 923 99T872 42T800 10T718 0H387V201H285V0H53V526ZM665 139Q688 139 706 150T725 187Q725 213 707 221T665 230H619V139H665Z"  />
<glyph unicode="&#x45B;" horiz-adv-x="666" d="M53 560H0V680H53V756H284V680H401V560H284V454H286Q306 483 343 504T430 526Q485 526 521 506T579 455T609 384T618 306V0H386V266Q386 306 374 322T336 338Q316 338 300 321T284 265V0H53V560Z"  />
<glyph unicode="&#x45C;" horiz-adv-x="671" d="M53 526H285V315H288L413 526H681L511 279L680 0H411L288 219H285V0H53V526ZM234 584L345 728H557L403 584H234Z"  />
<glyph unicode="&#x45E;" horiz-adv-x="638" d="M154 -240Q136 -240 117 -239T81 -235T48 -230T23 -224L52 -34Q65 -39 83 -42T117 -46Q155 -46 173 -31T201 9L205 20L-8 526H248L326 249H330L399 526H646L430 -32Q411 -81 387 -119T331 -185T256 -226T154 -240ZM326 584Q293 584 264 591T212 613T172 654T149 718L252 738Q254 713 273 700T326 686Q359 686 378 699T400 738L503 718Q496 680 480 655T441 614T388 591T326 584Z"  />
<glyph unicode="&#x45F;" horiz-adv-x="672" d="M243 0H53V526H285V171H387V526H619V0H428V-108H243V0Z"  />
<glyph unicode="&#x490;" horiz-adv-x="548" d="M66 708H355V833H541V507H304V0H66V708Z"  />
<glyph unicode="&#x491;" horiz-adv-x="479" d="M53 526H294V634H464V355H285V0H53V526Z"  />
<glyph unicode="&#x2013;" horiz-adv-x="400" d="M30 345H370V225H30V345Z"  />
<glyph unicode="&#x2014;" horiz-adv-x="600" d="M30 345H570V225H30V345Z"  />
<glyph unicode="&#x2018;" horiz-adv-x="342" d="M42 426L141 708H305L231 426H42Z"  />
<glyph unicode="&#x2019;" horiz-adv-x="342" d="M300 708L201 426H37L111 708H300Z"  />
<glyph unicode="&#x201A;" horiz-adv-x="342" d="M300 156L201 -126H37L111 156H300Z"  />
<glyph unicode="&#x201C;" horiz-adv-x="568" d="M273 426L367 708H531L457 426H273ZM42 426L141 708H305L226 426H42Z"  />
<glyph unicode="&#x201D;" horiz-adv-x="568" d="M295 708L201 426H37L111 708H295ZM526 708L427 426H263L342 708H526Z"  />
<glyph unicode="&#x201E;" horiz-adv-x="568" d="M295 156L201 -126H37L111 156H295ZM526 156L427 -126H263L342 156H526Z"  />
<glyph unicode="&#x2020;" horiz-adv-x="619" d="M399 -133H215V341H34V511H214V708H398V511H585V341H399V-133Z"  />
<glyph unicode="&#x2021;" horiz-adv-x="619" d="M401 -133H218V36H34V200H218V375H34V539H217V708H400V539H585V375H400V200H585V36H401V-133Z"  />
<glyph unicode="&#x2022;" horiz-adv-x="500" d="M73 354Q73 391 87 423T125 479T181 517T250 531Q287 531 319 517T375 479T413 423T427 354Q427 317 413 285T375 229T319 191T250 177Q213 177 181 191T125 229T87 285T73 354Z"  />
<glyph unicode="&#x2026;" horiz-adv-x="1000" d="M34 113Q34 140 44 163T73 204T116 232T168 243Q194 243 217 233T259 205T287 164T298 113Q298 86 288 62T259 21T218 -6T168 -16Q141 -16 117 -6T74 21T45 62T34 113ZM366 113Q366 140 376 163T405 204T448 232T500 243Q526 243 549 233T591 205T619 164T630 113Q630 86 620 62T591 21T550 -6T500 -16Q473 -16 449 -6T406 21T377 62T366 113ZM699 113Q699 140 709 163T738 204T781 232T833 243Q859 243 882 233T924 205T952 164T963 113Q963 86 953 62T924 21T883 -6T833 -16Q806 -16 782 -6T739 21T710 62T699 113Z"  />
<glyph unicode="&#x2030;" horiz-adv-x="1264" d="M212 357Q174 357 141 371T82 410T42 467T27 538Q27 576 41 609T81 667T140 706T212 720Q250 720 283 706T342 668T381 610T396 538Q396 500 382 468T342 410T284 371T212 357ZM212 594Q189 594 173 578T156 538Q156 515 172 500T212 484Q234 484 250 499T267 538Q267 561 251 577T212 594ZM651 -12Q613 -12 580 2T521 41T481 98T466 169Q466 207 480 240T520 298T579 337T651 351Q689 351 722 337T781 299T820 241T835 169Q835 131 821 99T781 41T723 2T651 -12ZM651 225Q628 225 612 209T595 169Q595 146 611 131T651 115Q673 115 689 130T706 169Q706 192 690 208T651 225ZM1053 -12Q1015 -12 982 2T923 41T883 98T868 169Q868 207 882 240T922 298T981 337T1053 351Q1091 351 1124 337T1183 299T1222 241T1237 169Q1237 131 1223 99T1183 41T1125 2T1053 -12ZM1053 225Q1030 225 1014 209T997 169Q997 146 1013 131T1053 115Q1075 115 1091 130T1108 169Q1108 192 1092 208T1053 225ZM208 13L554 739L653 694L307 -27L208 13Z"  />
<glyph unicode="&#x2039;" horiz-adv-x="350" d="M17 274L193 522L322 439L207 274L322 109L193 26L17 274Z"  />
<glyph unicode="&#x203A;" horiz-adv-x="350" d="M28 109L143 274L28 439L158 522L333 274L158 26L28 109Z"  />
<glyph unicode="&#x20AC;" horiz-adv-x="700" d="M119 335Q118 342 118 347T118 357Q118 361 118 365T119 376H32L79 507H137Q156 562 190 603T272 672T376 714T496 728Q514 728 536 727T582 722T626 715T663 704L597 537Q577 544 547 549T491 554Q473 554 455 551T421 542T391 528T371 507H603L557 376H330Q329 369 329 365T329 357Q329 352 329 347T330 335H547L504 206H359Q372 184 407 172T481 159Q516 159 549 166T603 186L633 13Q607 -1 563 -10T458 -20Q396 -20 344 -4T250 41T179 112T135 206H30L72 335H119H119Z"  />
<glyph unicode="&#x2116;" horiz-adv-x="1095" d="M66 708H303L455 389H459V708H685V0H442L296 298H292V0H66V708ZM763 380H1055V276H763V380ZM903 416Q871 416 843 426T792 456T756 504T743 570Q743 606 756 634T791 681T842 710T903 720Q935 720 964 710T1016 681T1052 634T1065 570Q1065 533 1052 505T1017 457T965 427T903 416ZM904 522Q924 522 937 536T950 570Q950 588 937 602T903 616Q883 616 871 602T858 570Q858 550 871 536T904 522Z"  />
<glyph unicode="&#x2122;" horiz-adv-x="1000" d="M152 605H40V708H386V605H274V296H152V605ZM446 708H610L699 460L782 708H945V296H833V541H831L739 296H648L559 541H557V296H446V708Z"  />

</font>
</defs>
</svg>
