<?xml  version="1.0" encoding="UTF-8"?>
<!DOCTYPE svg PUBLIC "-//W3C//DTD SVG 1.0//EN" "http://www.w3.org/TR/2001/REC-SVG-20010904/DTD/svg10.dtd" >
<svg xmlns="http://www.w3.org/2000/svg" >
<metadata>
<version>1.0</version>
<id><![CDATA[Avenir Next W10 Thin]]></id>
<vendor>Monotype Imaging Inc.</vendor>
<credits>
<name>Fonts.com WebFonts</name>
<URL>http://webfonts.fonts.com</URL>
<role>Home of the Web fonts</role>
</credits>
<license>
<URL>http://webfonts.fonts.com/Legal</URL>
</license>
<copyright><![CDATA[Copyright © 2012 Linotype GmbH, www.linotype.com. All rights reserved. This font software may not be reproduced, modified, disclosed or transferred without the express written approval of Linotype GmbH. Avenir is a trademark of Linotype GmbH registered in the U.S. Patent and Trademark Office and may be registered in certain other jurisdictions. This typeface is original artwork of Adrian Frutiger and Akira Kobayashi. The design may be protected in certain jurisdictions.]]></copyright>
<trademark><![CDATA[Avenir is a trademark of Linotype GmbH registered in the U.S. Patent and Trademark Office and may be registered in certain other jurisdictions.]]></trademark>
<licensee>
<name></name>
</licensee>
</metadata>
<defs >
<font horiz-adv-x="552" id="98b97f32-8588-4a72-b4fe-6a84f02b297c">
<font-face font-family="" panose-1="2 11 3 3 2 2 2 2 2 4" ascent="971" descent="-254" units-per-em="1000" alphabetic="0">
</font-face>
<missing-glyph horiz-adv-x="512" d="M222 117V184H278V117H222ZM225 234L223 251Q223 279 225 298T235 332T253 360T282 391Q298 407 308 418T323 438T330 456T332 474Q332 510 310 534T256 559Q225 559 203 537T174 464L124 472Q131 544 168 576T259 609Q313 609 348 574T383 478Q383 446 371 420T320 358Q301 341 291 330T277 306T272 278T271 234H225ZM462 50V667H50V50H462ZM512 718V0H0V718H512Z"  />

<glyph unicode="&#xA;" />
<glyph unicode="&#xD;" horiz-adv-x="0" />
<glyph unicode=" " horiz-adv-x="250" />
<glyph unicode="!" horiz-adv-x="292" d="M165 194H127V708H165V194ZM179 28Q179 14 170 4T146 -6Q132 -6 123 4T113 28Q113 43 122 53T146 63Q160 63 169 53T179 28Z"  />
<glyph unicode="&quot;" horiz-adv-x="404" d="M113 708H147V478H113V708ZM257 708H291V478H257V708Z"  />
<glyph unicode="#" d="M139 232H31V262H143L168 448H58V478H173L202 708H234L204 478H364L394 708H426L396 478H501V448H392L367 262H474V232H363L333 0H301L331 232H171L141 0H109L139 232ZM176 262H335L360 448H200L176 262Z"  />
<glyph unicode="$" horiz-adv-x="566" d="M257 689Q227 686 200 675T151 645T118 599T105 538Q105 503 117 478T151 435T199 404T257 382V689ZM288 18Q320 19 350 29T403 59T440 108T454 176Q454 211 440 236T403 280T350 312T288 336V18ZM257 344Q218 356 184 371T124 409T84 462T69 537Q69 577 83 609T123 665T183 703T257 720V792H288V721Q342 720 392 701T477 642L448 618Q422 653 380 671T288 690V372Q329 358 366 343T430 305T474 251T491 174Q491 131 476 97T433 39T368 2T288 -13V-84H257V-13Q193 -11 142 14T54 82L83 104Q117 62 165 41T257 18V344Z"  />
<glyph unicode="%" horiz-adv-x="824" d="M373 553Q373 518 361 488T326 436T275 402T211 389Q177 389 148 401T96 436T61 488T48 553Q48 587 61 617T96 669T147 704T211 717Q245 717 274 704T326 669T360 617T373 553ZM340 553Q340 581 330 605T302 647T261 675T211 685Q184 685 161 675T120 647T92 605T82 553Q82 525 92 501T119 459T160 431T211 421Q237 421 260 431T301 459T329 501T340 553ZM776 154Q776 119 763 90T728 38T677 4T613 -9Q579 -9 550 3T498 38T464 89T451 154Q451 188 463 218T498 270T549 305T613 318Q647 318 676 306T728 271T763 218T776 154ZM742 154Q742 182 732 206T704 248T663 276T613 286Q586 286 563 276T522 248T494 206T484 154Q484 126 494 102T521 60T562 32T613 22Q639 22 662 32T703 60T731 102T742 154ZM202 -28L175 -12L618 737L645 721L202 -28Z"  />
<glyph unicode="&amp;" horiz-adv-x="704" d="M517 150L659 0H608L497 118Q452 51 398 18T273 -16Q230 -16 193 -3T127 36T83 97T67 181Q67 220 79 251T114 307T168 353T237 393Q190 445 168 485T146 569Q146 605 158 634T192 683T243 715T307 726Q340 726 368 715T417 685T450 639T462 580Q462 545 449 518T412 467T358 425T292 386L491 174L601 373H643L517 150ZM425 577Q425 631 391 663T306 695Q280 695 258 686T218 661T192 621T182 570Q182 525 208 486T270 408Q302 424 330 441T380 479T413 523T425 577ZM259 369Q227 353 199 335T150 293T117 242T105 180Q105 142 118 112T155 61T210 28T277 16Q340 16 388 50T472 144L259 369Z"  />
<glyph unicode="&apos;" horiz-adv-x="260" d="M113 708H147V478H113V708Z"  />
<glyph unicode="(" horiz-adv-x="300" d="M97 288Q97 232 106 174T131 60T172 -48T225 -140L195 -157Q164 -113 140 -61T98 48T71 166T61 288Q61 349 70 410T97 528T139 637T195 733L225 716Q196 675 172 624T132 517T106 402T97 288Z"  />
<glyph unicode=")" horiz-adv-x="300" d="M202 288Q202 343 193 401T167 516T127 624T73 716L103 733Q134 689 159 637T201 528T228 410T238 288Q238 227 229 166T202 48T159 -61T103 -157L73 -140Q103 -99 126 -48T167 59T193 174T202 288Z"  />
<glyph unicode="*" horiz-adv-x="444" d="M237 546L393 595L404 566L246 518L345 382L320 364L222 502L124 364L99 382L198 518L40 566L51 595L207 546V708H237V546Z"  />
<glyph unicode="+" horiz-adv-x="666" d="M351 320H573V288H351V60H318V288H93V320H318V548H351V320Z"  />
<glyph unicode="&#x2c;" horiz-adv-x="246" d="M92 -139H63L123 92H162L92 -139Z"  />
<glyph unicode="-" horiz-adv-x="306" d="M250 235H56V266H250V235Z"  />
<glyph unicode="." horiz-adv-x="246" d="M156 29Q156 14 147 4T123 -6Q109 -6 100 4T91 29Q91 43 100 53T123 63Q137 63 146 53T156 29Z"  />
<glyph unicode="/" horiz-adv-x="370" d="M48 -16L17 -5L323 728L354 717L48 -16Z"  />
<glyph unicode="0" horiz-adv-x="566" d="M283 722Q350 722 393 689T462 602T497 483T507 354Q507 290 498 225T463 106T394 20T283 -14Q215 -14 172 19T103 106T69 224T59 354Q59 417 68 482T103 601T171 688T283 722ZM283 689Q242 689 213 673T162 629T129 566T109 493T100 420T97 354Q97 325 99 289T109 215T128 143T162 80T212 36T283 19Q324 19 353 35T403 79T437 142T457 215T466 288T469 354Q469 383 467 419T457 493T437 565T404 628T354 672T283 689Z"  />
<glyph unicode="1" horiz-adv-x="566" d="M326 0H289V663L157 550L134 577L291 708H326V0Z"  />
<glyph unicode="2" horiz-adv-x="566" d="M474 0H59V41L320 332Q369 386 399 435T430 538Q430 573 418 601T386 649T337 679T276 690Q219 690 177 658T118 567L81 576Q99 644 151 683T276 722Q317 722 352 709T413 673T453 616T468 543Q468 510 459 481T434 423T393 365T338 301L99 34H474V0Z"  />
<glyph unicode="3" horiz-adv-x="566" d="M217 388H242Q274 388 305 396T361 424T401 472T416 542Q416 575 404 602T372 649T324 679T264 690Q220 690 182 670T121 614L93 633Q122 676 165 699T266 722Q305 722 339 710T398 675T437 619T452 544Q452 483 418 436T315 374V372Q394 358 435 307T476 189Q476 147 463 110T422 46T356 2T265 -14Q194 -14 142 18T62 107L94 123Q115 75 161 48T265 19Q305 19 337 31T392 67T427 121T439 190Q439 234 421 265T374 317T310 346T242 355H217V388Z"  />
<glyph unicode="4" horiz-adv-x="566" d="M408 213H522V180H408V0H372V180H43V220L356 708H408V213ZM372 666H369L80 213H372V666Z"  />
<glyph unicode="5" horiz-adv-x="566" d="M455 674H156L150 417Q176 429 206 434T263 439Q313 439 354 423T424 376T468 305T484 216Q484 162 466 119T418 47T347 2T263 -14Q192 -14 145 15T67 91L98 110Q123 68 164 44T262 19Q297 19 330 32T390 69T431 130T447 214Q447 256 434 291T395 352T333 392T251 407Q215 407 180 398T115 371L120 708H455V674Z"  />
<glyph unicode="6" horiz-adv-x="566" d="M152 364L154 362Q177 388 214 403T293 419Q337 419 374 403T440 358T483 289T499 202Q499 155 483 115T438 47T369 2T282 -14Q235 -14 196 2T128 46T83 114T67 202Q67 246 82 291T128 389L317 708H361L152 364ZM104 202Q104 162 117 129T154 71T211 32T283 18Q322 18 355 32T412 70T449 128T462 202Q462 242 449 276T413 335T358 374T287 388Q249 388 216 374T157 335T118 276T104 202Z"  />
<glyph unicode="7" horiz-adv-x="566" d="M471 669L179 0H138L435 674H77V708H471V669Z"  />
<glyph unicode="8" horiz-adv-x="566" d="M353 378Q426 356 462 304T498 187Q498 141 482 104T436 41T367 0T283 -14Q238 -14 199 0T131 40T86 104T69 187Q69 219 78 249T106 304T151 349T213 378V380Q154 401 125 447T96 544Q96 584 110 617T150 673T209 709T283 722Q322 722 356 709T416 673T456 617T471 544Q471 518 464 493T441 447T404 408T353 380V378ZM132 543Q132 513 143 486T175 438T222 406T283 394Q316 394 343 406T391 438T423 485T435 543Q435 576 423 603T391 649T343 679T283 690Q251 690 224 680T176 650T144 603T132 543ZM106 190Q106 154 118 123T154 68T210 31T283 18Q323 18 355 31T411 67T447 122T460 190Q460 227 447 259T409 313T353 349T283 362Q245 362 213 349T157 314T120 259T106 190Z"  />
<glyph unicode="9" horiz-adv-x="566" d="M415 348L413 350Q390 324 353 309T274 293Q230 293 193 309T127 353T84 421T68 507Q68 554 84 593T128 661T197 706T284 722Q331 722 371 707T439 663T484 595T500 507Q500 462 485 419T439 323L249 0H205L415 348ZM462 507Q462 547 449 580T412 638T356 676T284 690Q245 690 212 677T155 639T118 581T105 507Q105 468 118 435T154 377T209 338T280 324Q318 324 351 338T409 376T448 434T462 507Z"  />
<glyph unicode=":" horiz-adv-x="286" d="M176 430Q176 416 167 406T143 396Q129 396 120 406T111 430Q111 444 120 454T143 464Q157 464 166 454T176 430ZM176 29Q176 14 167 4T143 -6Q129 -6 120 4T111 29Q111 43 120 53T143 63Q157 63 166 53T176 29Z"  />
<glyph unicode=";" horiz-adv-x="286" d="M176 430Q176 416 167 406T143 396Q129 396 120 406T111 430Q111 444 120 454T143 464Q157 464 166 454T176 430ZM104 -139H74L134 92H173L104 -139Z"  />
<glyph unicode="&lt;" horiz-adv-x="666" d="M573 514L127 303L573 92V59L93 288V318L573 547V514Z"  />
<glyph unicode="=" horiz-adv-x="666" d="M573 402V370H93V402H573ZM573 237V206H93V237H573Z"  />
<glyph unicode="&gt;" horiz-adv-x="666" d="M93 547L573 318V288L93 59V92L539 303L93 514V547Z"  />
<glyph unicode="?" horiz-adv-x="475" d="M257 198H221V253Q221 273 224 291T238 329T265 367T310 410Q330 427 345 442T370 473T386 508T391 551Q391 585 379 611T347 654T300 681T242 690Q178 690 138 653T87 555L51 561Q65 639 117 681T244 724Q282 724 316 713T375 680T414 627T429 553Q429 521 422 497T402 455T373 421T338 390Q314 369 298 353T273 321T261 286T257 242V198ZM275 28Q275 14 266 4T243 -6Q229 -6 220 4T210 28Q210 43 219 53T243 63Q256 63 265 53T275 28Z"  />
<glyph unicode="@" horiz-adv-x="800" d="M426 519Q388 519 358 498T308 444T277 372T266 297Q266 277 271 258T287 225T315 201T357 192Q397 192 426 217T475 279T504 353T514 418Q514 438 509 456T494 488T467 510T426 519ZM722 114Q666 51 590 16T420 -19Q335 -19 266 9T147 88T70 207T43 354Q43 433 72 501T151 619T270 698T416 727Q489 727 552 705T662 641T736 541T763 412Q763 356 750 310T711 230T649 179T569 160Q532 160 509 178T485 232Q485 240 486 244H483Q476 230 464 216T436 189T398 168T351 160Q320 160 297 171T259 202T236 246T228 299Q228 342 242 387T282 469T344 529T427 552Q471 552 497 530T531 470H535L552 535H585L526 313Q522 299 519 280T516 247Q516 192 574 192Q613 192 642 210T690 258T718 327T728 410Q728 473 705 525T639 615T540 673T416 694Q342 694 281 667T176 592T107 484T82 353Q82 281 106 219T176 111T283 39T422 13Q509 13 579 47T700 137L722 114Z"  />
<glyph unicode="A" horiz-adv-x="677" d="M57 0H16L322 708H363L661 0H620L538 198H140L57 0ZM154 231H524L341 674L154 231Z"  />
<glyph unicode="B" horiz-adv-x="619" d="M102 708H301Q341 708 381 700T452 673T503 620T523 537Q523 502 512 475T481 428T437 395T385 376V374Q414 371 444 359T499 325T540 269T556 191Q556 138 536 102T482 43T405 10T317 0H102V708ZM140 388H302Q335 388 367 396T426 421T469 466T485 533Q485 573 469 600T427 644T365 668T292 675H140V388ZM140 33H309Q353 33 391 42T458 70T502 118T518 190Q518 234 501 265T456 317T393 346T321 356H140V33Z"  />
<glyph unicode="C" horiz-adv-x="723" d="M687 95Q666 68 638 47T577 12T507 -11T431 -19Q351 -19 284 9T169 86T94 204T67 354Q67 435 94 503T169 621T285 699T431 727Q500 727 564 703T670 630L643 605Q625 626 601 642T549 670T491 687T431 693Q357 693 298 667T195 594T129 486T106 354Q106 284 129 223T194 115T297 42T431 15Q495 15 557 40T659 117L687 95Z"  />
<glyph unicode="D" horiz-adv-x="766" d="M102 708H314Q392 708 461 687T584 623T668 512T699 354Q699 263 668 197T584 87T462 22T314 0H102V708ZM140 34H304Q383 34 448 55T561 116T634 216T660 354Q660 432 634 491T561 591T449 653T304 674H140V34Z"  />
<glyph unicode="E" horiz-adv-x="591" d="M139 34H537V0H102V708H523V674H139V384H499V351H139V34Z"  />
<glyph unicode="F" horiz-adv-x="561" d="M140 0H102V708H513V674H140V383H487V350H140V0Z"  />
<glyph unicode="G" horiz-adv-x="790" d="M653 615Q614 653 555 673T436 694Q361 694 300 667T196 594T130 487T106 355Q106 286 129 224T195 116T300 42T441 14Q510 14 563 28T659 63V324H481V356H696V44Q649 17 584 -1T439 -19Q356 -19 288 9T170 88T94 206T67 355Q67 436 94 504T170 621T287 699T436 727Q512 727 572 705T678 641L653 615Z"  />
<glyph unicode="H" horiz-adv-x="728" d="M102 708H140V384H588V708H625V0H588V350H140V0H102V708Z"  />
<glyph unicode="I" horiz-adv-x="242" d="M140 0H102V708H140V0Z"  />
<glyph unicode="J" horiz-adv-x="484" d="M62 115Q78 71 114 43T200 15Q241 15 269 29T315 68T341 127T349 200V708H386V196Q386 152 376 113T343 45T287 -1T203 -18Q136 -18 90 17T28 103L62 115Z"  />
<glyph unicode="K" horiz-adv-x="584" d="M140 385L491 708H545L186 384L563 0H509L140 380V0H102V708H140V385Z"  />
<glyph unicode="L" horiz-adv-x="502" d="M140 34H485V0H102V708H140V34Z"  />
<glyph unicode="M" horiz-adv-x="900" d="M102 708H163L450 60L737 708H798V0H760V662H757L461 0H437L142 662H140V0H102V708Z"  />
<glyph unicode="N" horiz-adv-x="773" d="M631 52H633V708H671V0H621L142 658H140V0H102V708H152L631 52Z"  />
<glyph unicode="O" horiz-adv-x="865" d="M798 354Q798 273 771 205T694 87T578 9T433 -19Q354 -19 287 9T171 86T95 204T67 354Q67 435 94 503T171 621T287 699T433 727Q512 727 578 699T694 622T770 504T798 354ZM759 354Q759 424 736 486T669 594T566 667T433 694Q359 694 299 667T196 594T130 486T106 354Q106 284 129 223T195 115T298 42T433 15Q507 15 567 42T670 115T736 222T759 354Z"  />
<glyph unicode="P" horiz-adv-x="574" d="M102 708H297Q340 708 380 699T452 668T503 613T522 528Q522 482 505 448T459 390T391 354T305 342H140V0H102V708ZM140 374H305Q341 374 373 383T430 410T469 458T484 528Q484 569 469 597T428 642T369 668T301 676H140V374Z"  />
<glyph unicode="Q" horiz-adv-x="871" d="M106 362Q106 294 129 235T195 130T298 59T430 33Q504 33 563 60T665 133T730 238T753 362Q753 429 730 489T664 595T561 667T429 694Q357 694 298 668T196 596T130 491T106 362ZM832 0H428Q353 0 287 26T173 100T96 214T67 362Q67 441 94 508T170 624T284 700T429 727Q507 727 573 700T688 623T763 508T791 362Q791 306 775 254T729 159T659 83T572 36V34H832V0Z"  />
<glyph unicode="R" horiz-adv-x="596" d="M140 0H102V708H302Q345 708 386 700T459 672T510 617T530 529Q530 482 513 450T467 396T404 364T332 352L544 0H500L292 349H140V0ZM140 382H298Q392 382 442 419T493 529Q493 572 477 600T433 645T368 669T291 676H140V382Z"  />
<glyph unicode="S" horiz-adv-x="568" d="M458 622Q432 656 391 675T299 694Q266 694 234 685T175 656T133 608T117 540Q117 485 145 454T216 402T308 366T400 329T471 272T500 175Q500 127 482 91T434 30T363 -6T280 -19Q214 -19 160 4T68 72L93 97Q131 57 178 36T280 15Q315 15 348 25T406 56T447 105T462 173Q462 214 446 241T402 287T341 319T271 345T201 372T140 408T97 461T80 539Q80 585 98 620T147 679T218 715T300 727Q360 727 408 706T486 646L458 622Z"  />
<glyph unicode="T" horiz-adv-x="549" d="M293 0H256V674H16V708H533V674H293V0Z"  />
<glyph unicode="U" horiz-adv-x="725" d="M363 -19Q286 -19 235 5T152 69T108 160T94 267V708H132V272Q132 230 141 185T175 101T245 39T363 14Q434 14 479 38T549 99T584 183T594 272V708H631V267Q631 212 618 161T573 69T491 5T363 -19Z"  />
<glyph unicode="V" horiz-adv-x="611" d="M303 43H305L558 708H598L328 0H281L13 708H54L303 43Z"  />
<glyph unicode="W" horiz-adv-x="961" d="M258 44H261L454 708H504L701 44H703L898 708H937L726 0H677L480 663H478L284 0H235L24 708H63L258 44Z"  />
<glyph unicode="X" horiz-adv-x="608" d="M305 399L511 708H555L327 371L580 0H534L304 343L74 0H28L281 371L52 708H97L305 399Z"  />
<glyph unicode="Y" horiz-adv-x="558" d="M298 0H260V308L10 708H56L280 342L504 708H547L298 308V0Z"  />
<glyph unicode="Z" horiz-adv-x="587" d="M538 669L88 34H549V0H47V37L499 674H59V708H538V669Z"  />
<glyph unicode="[" horiz-adv-x="300" d="M220 702H109V-126H220V-156H73V732H220V702Z"  />
<glyph unicode="\" horiz-adv-x="370" d="M17 717L48 728L354 -5L323 -16L17 717Z"  />
<glyph unicode="]" horiz-adv-x="300" d="M80 -126H191V702H80V732H227V-156H80V-126Z"  />
<glyph unicode="^" horiz-adv-x="666" d="M317 708H349L574 252H541L333 677L125 252H92L317 708Z"  />
<glyph unicode="_" horiz-adv-x="500" d="M0 -88H500V-117H0V-88Z"  />
<glyph unicode="`" horiz-adv-x="240" d="M11 708H58L160 564H128L11 708Z"  />
<glyph unicode="a" horiz-adv-x="519" d="M219 -13Q191 -13 164 -6T114 18T77 60T63 122Q63 172 88 202T152 248T237 270T327 275H393V305Q393 377 355 411T252 445Q210 445 175 430T112 390L92 416Q123 444 165 460T254 476Q332 476 380 435T428 307V104Q428 78 430 49T436 0H402Q399 19 397 49T395 99H392Q369 41 322 14T219 -13ZM225 17Q271 17 303 34T355 80T384 145T393 219V246H337Q298 246 256 242T179 225T122 188T99 123Q99 93 111 73T141 41T181 23T225 17Z"  />
<glyph unicode="b" horiz-adv-x="629" d="M135 110V0H99V756H135V351H138Q168 413 221 444T336 476Q388 476 431 458T504 406T552 328T569 231Q569 179 552 135T504 57T430 6T336 -13Q306 -13 276 -5T220 18T173 57T138 110H135ZM532 231Q532 274 518 313T479 381T416 427T333 445Q290 445 254 428T191 382T149 314T134 231Q134 187 149 149T190 81T253 35T333 18Q379 18 416 35T478 81T518 148T532 231Z"  />
<glyph unicode="c" horiz-adv-x="486" d="M429 387Q406 414 372 429T299 445Q253 445 216 428T153 382T112 313T98 231Q98 187 112 149T152 81T216 36T299 19Q340 19 374 33T436 73L458 51Q426 18 387 3T299 -13Q246 -13 203 5T127 55T78 133T60 231Q60 284 77 329T127 406T202 457T299 476Q345 476 385 459T454 410L429 387Z"  />
<glyph unicode="d" horiz-adv-x="629" d="M492 110Q462 50 409 19T294 -13Q242 -13 199 5T125 57T77 134T60 231Q60 283 77 327T125 405T199 457T294 476Q355 476 408 445T492 351H494V756H530V0H494V110H492ZM98 231Q98 187 111 149T150 81T213 35T296 18Q339 18 375 35T438 81T480 148T495 231Q495 275 480 314T439 382T376 428T296 445Q250 445 213 428T151 381T112 313T98 231Z"  />
<glyph unicode="e" horiz-adv-x="561" d="M465 259Q464 300 451 334T414 393T357 431T284 445Q237 445 203 426T145 379T111 319T98 259H465ZM293 -13Q242 -13 199 5T125 57T77 135T60 235Q60 287 77 331T125 408T196 458T284 476Q338 476 378 457T446 407T487 335T501 251Q501 246 501 240T500 229H97Q97 189 110 151T147 84T208 36T293 18Q347 18 387 40T458 100L483 79Q411 -13 293 -13Z"  />
<glyph unicode="f" horiz-adv-x="286" d="M274 432H154V0H118V432H20V462H117V616Q117 658 127 687T156 734T198 760T249 768Q277 768 298 762L292 731Q271 737 249 737Q222 737 204 727T174 699T159 660T154 614V462H274V432Z"  />
<glyph unicode="g" horiz-adv-x="628" d="M109 -134Q148 -175 195 -195T296 -215Q353 -215 391 -196T452 -144T484 -69T494 21V114H492Q478 84 457 61T410 22T354 -2T294 -10Q242 -10 199 8T125 59T77 135T60 232Q60 283 77 327T125 405T199 457T294 476Q355 476 409 444T492 351H494V462H530V19Q530 -31 519 -78T481 -163T409 -224T295 -247Q230 -247 177 -224T85 -158L109 -134ZM98 232Q98 190 111 152T150 84T213 38T296 21Q339 21 375 37T438 82T480 150T495 233Q495 276 480 314T439 382T376 428T296 445Q250 445 213 428T151 381T112 314T98 232Z"  />
<glyph unicode="h" horiz-adv-x="573" d="M137 355Q147 383 165 405T206 444T256 468T311 476Q358 476 390 460T442 417T471 355T480 281V0H444V271Q444 302 438 333T416 389T374 429T305 445Q270 445 240 431T186 389T149 318T135 219V0H99V756H135V355H137Z"  />
<glyph unicode="i" horiz-adv-x="233" d="M135 0H99V462H135V0ZM147 656Q147 641 138 632T117 623Q105 623 96 632T86 656Q86 670 95 679T117 688Q128 688 137 679T147 656Z"  />
<glyph unicode="j" horiz-adv-x="234" d="M-14 -206Q-6 -208 1 -209T16 -210Q45 -210 61 -200T86 -174T97 -137T99 -94V462H135V-96Q135 -129 130 -156T112 -201T76 -230T17 -241Q-2 -241 -20 -236L-14 -206ZM148 656Q148 641 138 632T117 623Q105 623 96 632T86 656Q86 670 95 679T117 688Q129 688 138 679T148 656Z"  />
<glyph unicode="k" horiz-adv-x="465" d="M135 251H137L368 462H420L179 249L446 0H393L137 244H135V0H99V756H135V251Z"  />
<glyph unicode="l" horiz-adv-x="234" d="M135 0H99V756H135V0Z"  />
<glyph unicode="m" horiz-adv-x="887" d="M100 350Q100 360 100 375T100 406T98 437T96 462H131Q132 453 132 439T133 410T134 380T135 354H137Q157 411 202 443T301 476Q364 476 401 442T455 348Q476 410 521 443T627 476Q673 476 705 460T756 416T785 352T794 275V0H758V266Q758 299 752 331T730 388T689 429T624 445Q588 445 559 430T508 387T475 321T463 236V0H426V275Q426 356 394 400T298 445Q266 445 237 431T185 389T150 320T137 225V0H100V350Z"  />
<glyph unicode="n" horiz-adv-x="575" d="M131 462Q132 453 132 439T133 410T134 380T135 354H137Q147 382 165 405T205 443T255 467T310 476Q357 476 389 460T442 417T472 355T482 281V0H446V271Q446 302 440 333T418 389T375 429T307 445Q272 445 242 431T188 390T151 324T137 233V0H100V350Q100 360 100 375T100 406T98 437T96 462H131Z"  />
<glyph unicode="o" horiz-adv-x="607" d="M547 232Q547 179 529 134T479 57T402 6T303 -13Q250 -13 205 5T128 56T78 134T60 232Q60 285 78 330T128 407T205 458T303 476Q357 476 401 458T478 408T529 330T547 232ZM509 232Q509 276 495 315T454 383T389 428T303 445Q255 445 217 429T153 383T112 315T98 232Q98 188 112 149T152 81T217 35T303 18Q351 18 389 35T453 81T494 149T509 232Z"  />
<glyph unicode="p" horiz-adv-x="629" d="M135 -240H98V462H135V351H138Q167 413 220 444T335 476Q387 476 430 458T504 406T552 328T569 231Q569 179 552 135T504 57T430 6T335 -13Q305 -13 276 -5T220 18T173 57T138 110H135V-240ZM531 231Q531 274 517 313T478 381T416 427T333 445Q290 445 254 428T190 382T148 314T133 231Q133 187 148 149T190 81T253 35T333 18Q379 18 415 35T477 81T517 148T531 231Z"  />
<glyph unicode="q" horiz-adv-x="629" d="M491 110Q477 80 456 57T409 19T354 -5T294 -13Q242 -13 199 5T125 57T77 134T60 231Q60 283 77 328T124 406T198 457T294 476Q355 476 408 445T491 351H494V462H530V-240H494V110H491ZM98 231Q98 187 111 149T150 81T213 35T296 18Q339 18 375 35T438 81T480 148T495 231Q495 275 480 314T439 382T376 428T296 445Q250 445 213 428T151 381T112 313T98 231Z"  />
<glyph unicode="r" horiz-adv-x="330" d="M100 350Q100 360 100 375T100 406T98 437T96 462H131Q132 453 132 439T133 410T134 380T135 354H137Q157 416 199 446T293 476Q301 476 307 476T320 474L317 441Q312 442 306 442T293 443Q255 443 226 426T177 380T147 312T137 228V0H100V350H100Z"  />
<glyph unicode="s" horiz-adv-x="424" d="M334 384Q293 445 214 445Q196 445 176 440T140 424T113 396T102 352Q102 311 131 291T226 254Q257 246 284 236T331 211T362 175T373 124Q373 90 360 65T325 22T275 -3T215 -12Q163 -12 119 8T46 69L75 90Q98 57 134 38T215 19Q237 19 259 25T298 44T326 76T337 121Q337 149 324 167T291 196T244 215T191 230Q132 245 99 272T66 352Q66 383 79 406T113 445T160 468T215 476Q264 476 301 458T361 404L334 384Z"  />
<glyph unicode="t" horiz-adv-x="308" d="M284 432H150V108Q150 60 172 41T230 22Q259 22 283 33L286 2Q272 -3 256 -6T222 -10Q173 -10 144 18T114 102V432H15V462H113V597H150V462H284V432Z"  />
<glyph unicode="u" horiz-adv-x="575" d="M442 0Q441 10 441 24T440 53T439 82T438 108H436Q426 79 408 57T367 19T316 -5T261 -13Q214 -13 182 3T130 46T101 108T92 182V462H128V192Q128 161 134 130T155 73T198 33T266 17Q301 17 332 31T386 73T423 141T437 236V462H473V112Q473 101 473 87T474 56T476 25T478 0H442Z"  />
<glyph unicode="v" horiz-adv-x="451" d="M249 0H206L22 462H62L227 37H229L390 462H429L249 0Z"  />
<glyph unicode="w" horiz-adv-x="713" d="M70 462L192 42H194L335 462H377L519 42H521L643 462H681L542 0H499L356 418H354L213 0H170L32 462H70Z"  />
<glyph unicode="x" horiz-adv-x="462" d="M207 243L44 462H90L230 268L370 462H415L252 244L438 0H390L229 218L69 0H24L207 243Z"  />
<glyph unicode="y" horiz-adv-x="447" d="M73 -241Q62 -241 49 -240T26 -235L32 -202Q51 -209 73 -209Q93 -209 107 -202T133 -182T153 -155T167 -122L209 -9L22 462H62L228 31L386 462H425L195 -142Q177 -189 149 -215T73 -241Z"  />
<glyph unicode="z" horiz-adv-x="439" d="M383 432L87 31H394V0H43V29L342 432H59V462H383V432Z"  />
<glyph unicode="{" horiz-adv-x="300" d="M0 303Q34 303 56 327T78 417V607Q78 642 86 666T108 704T142 725T184 732H236V702H189Q147 702 130 675T113 603V413Q113 380 106 358T89 321T65 299T39 289V287Q52 285 65 278T88 256T106 219T113 163V-27Q113 -71 130 -98T189 -126H236V-156H184Q161 -156 142 -150T109 -129T86 -90T78 -31V159Q78 191 73 213T57 248T32 267T0 273V303Z"  />
<glyph unicode="|" horiz-adv-x="222" d="M128 750V-250H94V750H128Z"  />
<glyph unicode="}" horiz-adv-x="300" d="M300 273Q265 273 244 248T222 159V-31Q222 -66 214 -90T192 -128T158 -149T116 -156H64V-126H111Q153 -126 170 -99T187 -27V163Q187 196 194 218T211 255T235 277T261 287V289Q248 291 235 298T212 320T194 357T187 413V603Q187 647 170 674T111 702H64V732H116Q138 732 157 726T191 705T214 666T222 607V417Q222 385 227 363T243 328T268 309T300 303V273Z"  />
<glyph unicode="~" horiz-adv-x="666" d="M576 337Q549 295 515 271T443 246Q411 246 389 254T339 281Q319 294 304 303T277 317T252 325T227 328Q188 328 162 305T116 246L92 268Q121 316 153 338T225 361Q253 361 276 354T328 326Q367 299 393 289T442 279Q480 279 506 304T552 360L576 337Z"  />
<glyph unicode="&#xA0;" horiz-adv-x="250" />
<glyph unicode="&#xA1;" horiz-adv-x="292" d="M165 -224H127V290H165V-224ZM179 456Q179 441 170 431T146 421Q132 421 123 431T113 456Q113 470 122 480T146 490Q160 490 169 480T179 456Z"  />
<glyph unicode="&#xA2;" horiz-adv-x="566" d="M300 443Q259 439 227 421T171 374T136 309T123 231Q123 190 135 154T171 89T226 42T300 20V443ZM330 19Q367 21 399 35T455 74L482 52Q452 20 412 5T330 -12V-72H300V-12Q252 -9 213 10T145 62T101 138T85 231Q85 281 100 323T144 398T212 450T300 474V540H330V475Q373 473 412 456T481 408L452 385Q430 411 398 426T330 443V19Z"  />
<glyph unicode="&#xA3;" horiz-adv-x="566" d="M389 352H220V32H478V0H76V32H183V352H85V384H183V507Q183 554 194 594T228 663T287 709T373 726Q452 726 503 678L479 651Q459 671 432 682T372 693Q329 693 300 677T253 635T228 574T220 503V384H389V352Z"  />
<glyph unicode="&#xA4;" horiz-adv-x="819" d="M601 472Q627 440 641 400T656 310Q656 259 641 217T597 142Q600 138 614 124T643 95T673 65T691 48Q687 45 679 36T667 23L572 118Q540 91 500 76T410 61Q362 61 321 76T248 120L151 23Q148 27 140 36T127 48L223 144Q196 176 181 217T166 310Q166 358 180 398T220 471Q216 474 203 487T174 516T145 545T127 562Q131 565 140 574T152 586L243 495Q275 524 317 540T410 556Q461 556 502 541T576 496L666 586Q670 583 678 574T691 562L601 472ZM410 522Q362 522 324 506T259 460T218 393T203 310Q203 266 217 227T259 158T324 112T410 95Q458 95 496 112T562 158T603 226T618 310Q618 354 604 392T562 460T497 505T410 522Z"  />
<glyph unicode="&#xA5;" horiz-adv-x="566" d="M265 223V346H83V376H253L21 708H67L284 387L501 708H545L315 376H483V346H301V223H483V193H301V0H265V193H83V223H265Z"  />
<glyph unicode="&#xA6;" horiz-adv-x="222" d="M126 675V338H96V675H126ZM126 165V-172H96V165H126Z"  />
<glyph unicode="&#xA7;" horiz-adv-x="566" d="M424 635Q408 662 376 679T298 696Q272 696 248 689T204 666T174 629T162 578Q162 550 172 531T199 498T237 474T282 454L331 433Q362 420 386 406T428 375T454 336T464 287Q464 257 454 234T427 193T388 165T342 149Q388 128 413 98T439 20Q439 -18 425 -46T386 -94T330 -124T261 -134Q204 -134 159 -113T85 -51L117 -30Q141 -66 179 -83T262 -101Q289 -101 314 -94T358 -73T390 -36T402 17Q402 41 393 59T367 92T330 117T285 138L221 167Q192 180 169 192T131 221T107 258T99 311Q99 340 110 363T138 403T177 431T221 447Q200 457 183 468T153 494T133 529T126 577Q126 614 140 642T178 689T233 717T300 727Q354 727 393 709T454 655L424 635ZM256 427Q235 424 214 417T175 395T146 360T135 310Q135 283 145 265T171 233T210 209T257 189L308 168Q330 170 351 178T389 200T416 234T427 282Q427 308 417 327T390 361T351 387T303 408L256 427Z"  />
<glyph unicode="&#xA8;" horiz-adv-x="240" d="M5 655Q5 669 14 678T37 688Q51 688 60 679T69 655Q69 641 60 632T37 622Q24 622 15 631T5 655ZM171 655Q171 669 180 678T203 688Q216 688 225 679T235 655Q235 641 226 632T203 622Q189 622 180 631T171 655Z"  />
<glyph unicode="&#xA9;" horiz-adv-x="800" d="M564 194Q538 163 499 146T415 128Q367 128 327 144T258 191T213 262T196 353Q196 402 212 443T258 515T327 562T415 579Q457 579 496 562T560 515L532 493Q512 516 481 531T415 547Q373 547 340 532T282 489T245 427T232 353Q232 314 245 280T281 219T339 177T415 161Q449 161 481 174T538 214L564 194ZM20 353Q20 432 50 500T131 620T252 700T401 730Q479 730 548 701T668 620T750 501T780 353Q780 275 750 207T669 87T548 7T401 -22Q322 -22 253 7T132 87T50 206T20 353ZM54 353Q54 282 81 220T156 111T266 38T401 11Q472 11 535 37T645 110T719 219T746 353Q746 425 719 487T645 596T535 670T401 697Q329 697 266 670T156 597T82 488T54 353Z"  />
<glyph unicode="&#xAA;" horiz-adv-x="353" d="M259 615Q259 654 237 674T175 694Q147 694 122 684T80 657L63 679Q82 697 111 708T177 720Q231 720 260 693T290 616V492Q290 476 291 459T295 431H265Q263 442 262 455T260 488H259Q241 455 211 440T147 424Q130 424 112 428T80 443T56 470T46 510Q46 542 64 561T113 589T181 602T259 605V615ZM244 580Q212 580 182 578T129 569T92 547T78 510Q78 493 85 482T103 464T127 454T155 451Q205 451 232 482T259 557V580H244Z"  />
<glyph unicode="&#xAB;" horiz-adv-x="481" d="M112 238L227 56L201 37L73 238L200 438L226 420L112 238ZM283 238L398 56L372 37L244 238L371 438L397 420L283 238Z"  />
<glyph unicode="&#xAC;" horiz-adv-x="666" d="M578 133H544V370H89V402H578V133Z"  />
<glyph unicode="&#xAD;" horiz-adv-x="306" d="M250 235H56V266H250V235Z"  />
<glyph unicode="&#xAE;" horiz-adv-x="600" d="M72 494Q72 541 90 582T139 654T212 702T301 720Q348 720 389 703T461 655T510 583T528 494Q528 447 510 406T462 335T390 287T301 269Q254 269 212 286T139 334T90 406T72 494ZM98 494Q98 453 114 416T157 352T222 308T301 292Q343 292 379 308T443 351T486 416T502 494Q502 536 486 572T443 636T380 679T301 695Q259 695 222 679T158 636T114 573T98 494ZM220 622H306Q344 622 368 605T392 550Q392 519 373 502T327 482L402 369H367L297 479H249V369H220V622ZM293 502Q323 502 343 512T363 551Q363 579 345 588T305 597H249V502H293Z"  />
<glyph unicode="&#xAF;" horiz-adv-x="240" d="M242 615H-2V645H242V615Z"  />
<glyph unicode="&#xB0;" horiz-adv-x="400" d="M346 571Q346 540 335 514T304 468T258 437T200 425Q169 425 143 436T97 467T66 513T54 571Q54 602 65 628T96 674T142 705T200 717Q231 717 257 706T303 675T334 629T346 571ZM318 571Q318 595 309 616T283 654T246 679T200 689Q176 689 155 680T117 654T92 617T82 571Q82 547 91 526T117 488T154 463T200 453Q224 453 245 462T283 488T308 525T318 571Z"  />
<glyph unicode="&#xB1;" horiz-adv-x="666" d="M89 376H314V560H348V376H578V344H348V164H315V344H89V376ZM92 80H575V48H92V80Z"  />
<glyph unicode="&#xB2;" horiz-adv-x="356" d="M304 453H47V484L205 653Q242 693 255 719T269 771Q269 811 245 832T183 854Q150 854 126 836T91 780L59 787Q70 835 104 859T183 883Q239 883 271 853T303 774Q303 754 299 738T285 705T260 670T223 628L86 482H304V453Z"  />
<glyph unicode="&#xB3;" horiz-adv-x="356" d="M166 443Q120 443 88 463T39 521L69 532Q83 500 110 486T166 472Q211 472 237 497T263 566Q263 590 253 607T228 636T192 653T150 659H130V687H149Q198 687 223 712T249 774Q249 813 225 834T166 855Q140 855 118 843T84 810L58 825Q96 883 166 883Q220 883 250 855T281 775Q281 734 259 709T201 675Q201 675 200 673Q245 665 270 637T295 566Q295 536 285 513T258 475T217 451T166 443Z"  />
<glyph unicode="&#xB4;" horiz-adv-x="240" d="M112 564H80L182 708H229L112 564Z"  />
<glyph unicode="&#xB5;" horiz-adv-x="556" d="M87 462H123V192Q123 159 129 128T151 72T194 33T262 18Q297 18 328 32T382 74T418 140T432 229V462H467V112Q467 100 467 85T468 55T470 25T471 0H433V107H431Q409 51 361 19T256 -13Q206 -13 174 6T123 55V-228H87V462Z"  />
<glyph unicode="&#xB6;" horiz-adv-x="600" d="M496 -126H461V680H315V-126H280V333Q232 333 193 347T125 386T82 444T67 514Q67 609 126 658T291 708H496V-126Z"  />
<glyph unicode="&#xB7;" horiz-adv-x="246" d="M156 273Q156 259 147 249T123 239Q109 239 100 249T91 273Q91 287 100 297T123 307Q137 307 146 297T156 273Z"  />
<glyph unicode="&#xB8;" horiz-adv-x="240" d="M88 -83Q110 -76 136 -76Q151 -76 166 -79T193 -91T213 -113T221 -145Q221 -169 210 -185T182 -210T145 -223T107 -227Q88 -227 63 -222T16 -207L24 -184Q43 -193 65 -197T106 -201Q119 -201 133 -199T160 -190T180 -173T188 -145Q188 -117 167 -108T122 -98Q109 -98 91 -101T61 -111L48 -100L115 0H143L88 -83Z"  />
<glyph unicode="&#xB9;" horiz-adv-x="356" d="M204 453H170V835L84 773L63 797L173 874H204V453Z"  />
<glyph unicode="&#xBA;" horiz-adv-x="353" d="M322 573Q322 540 312 513T282 466T236 435T177 424Q145 424 118 435T72 466T42 513T31 573Q31 606 41 633T71 679T118 710T177 721Q209 721 235 710T281 680T311 633T322 573ZM290 573Q290 598 283 620T261 658T225 684T177 694Q150 694 129 685T93 659T71 620T63 573Q63 548 70 526T93 487T129 460T177 450Q204 450 225 460T260 486T282 525T290 573Z"  />
<glyph unicode="&#xBB;" horiz-adv-x="481" d="M369 238L255 420L280 439L409 238L281 38L255 56L369 238ZM198 238L84 420L109 439L238 238L110 38L84 56L198 238Z"  />
<glyph unicode="&#xBC;" horiz-adv-x="812" d="M687 133H752V104H687V0H656V104H463V135L645 424H687V133ZM653 383L496 133H656V383H653ZM204 287H170V669L84 607L63 631L173 708H204V287ZM186 -28L159 -12L602 737L629 721L186 -28Z"  />
<glyph unicode="&#xBD;" horiz-adv-x="812" d="M745 0H488V31L646 200Q684 240 697 266T710 318Q710 358 686 379T623 401Q590 401 566 383T532 327L500 334Q511 382 545 406T623 430Q680 430 712 400T744 322Q744 302 740 285T727 252T702 217T665 176L528 29H745V0ZM186 -28L159 -12L602 737L629 721L186 -28ZM204 287H170V669L84 607L63 631L186 708H204V287Z"  />
<glyph unicode="&#xBE;" horiz-adv-x="812" d="M656 104H463V135L645 424H687V133H752V104H687V0H656V104ZM166 280Q120 280 88 300T39 358L69 369Q83 337 110 323T166 309Q211 309 237 334T263 403Q263 427 253 444T228 473T192 490T150 496H130V524H149Q198 524 223 549T249 611Q249 650 225 671T166 692Q140 692 118 680T84 647L58 662Q96 720 166 720Q220 720 250 692T281 612Q281 571 259 546T200 512V510Q245 502 270 474T295 403Q295 373 285 350T258 312T217 288T166 280ZM656 133V383H653L496 133H656ZM186 -28L159 -12L602 737L629 721L186 -28Z"  />
<glyph unicode="&#xBF;" horiz-adv-x="475" d="M219 286H256V231Q256 210 252 191T238 153T209 114T162 71Q124 40 105 10T85 -67Q85 -101 97 -127T129 -171T176 -198T235 -207Q299 -207 339 -169T389 -71L425 -77Q411 -155 359 -197T232 -240Q194 -240 160 -229T101 -196T62 -143T47 -69Q47 -38 54 -14T74 29T103 63T138 94Q162 114 177 130T202 162T215 197T219 242V286ZM201 456Q201 470 210 480T234 490Q248 490 257 480T266 456Q266 441 257 431T234 421Q220 421 211 431T201 456Z"  />
<glyph unicode="&#xC0;" horiz-adv-x="677" d="M57 0H16L322 708H363L661 0H620L538 198H140L57 0ZM154 231H524L341 674L154 231ZM212 908H259L361 764H329L212 908Z"  />
<glyph unicode="&#xC1;" horiz-adv-x="677" d="M57 0H16L322 708H363L661 0H620L538 198H140L57 0ZM154 231H524L341 674L154 231ZM355 764H323L425 908H472L355 764Z"  />
<glyph unicode="&#xC2;" horiz-adv-x="677" d="M57 0H16L322 708H363L661 0H620L538 198H140L57 0ZM154 231H524L341 674L154 231ZM469 764H433L342 889L251 764H215L320 908H364L469 764Z"  />
<glyph unicode="&#xC3;" horiz-adv-x="677" d="M57 0H16L322 708H363L661 0H620L538 198H140L57 0ZM154 231H524L341 674L154 231ZM211 787Q216 824 233 846T278 868Q295 868 310 862T345 844Q369 830 381 825T406 820Q426 820 435 833T449 869H474Q469 832 452 811T406 790Q390 790 376 795T340 814Q317 828 304 833T278 838Q259 838 250 824T235 787H211Z"  />
<glyph unicode="&#xC4;" horiz-adv-x="677" d="M57 0H16L322 708H363L661 0H620L538 198H140L57 0ZM154 231H524L341 674L154 231ZM227 855Q227 869 236 878T259 888Q273 888 282 879T291 855Q291 841 282 832T259 822Q246 822 237 831T227 855ZM393 855Q393 869 402 878T425 888Q438 888 447 879T457 855Q457 841 448 832T425 822Q411 822 402 831T393 855Z"  />
<glyph unicode="&#xC5;" horiz-adv-x="677" d="M57 0H16L322 708H363L661 0H620L538 198H140L57 0ZM154 231H524L341 674L154 231ZM438 850Q438 830 431 813T410 782T379 762T342 755Q322 755 305 762T275 782T254 812T246 850Q246 870 253 887T274 917T305 937T342 945Q361 945 378 938T409 918T430 888T438 850ZM414 850Q414 880 393 901T342 922Q312 922 291 901T270 850Q270 820 291 799T342 778Q372 778 393 799T414 850Z"  />
<glyph unicode="&#xC6;" horiz-adv-x="975" d="M537 34H919V0H500V204H193L60 0H17L477 708H904V674H537V384H880V351H537V34ZM500 237V674H495L213 237H500Z"  />
<glyph unicode="&#xC7;" horiz-adv-x="723" d="M687 95Q646 42 580 12T435 -19L393 -83Q415 -76 441 -76Q456 -76 471 -79T498 -91T518 -113T526 -145Q526 -169 515 -185T487 -210T450 -223T412 -227Q393 -227 368 -222T321 -207L329 -184Q348 -193 370 -197T411 -201Q424 -201 438 -199T465 -190T485 -173T493 -145Q493 -117 472 -108T427 -98Q414 -98 396 -101T366 -111L353 -100L408 -18Q333 -14 270 15T162 94T92 209T67 354Q67 435 94 503T169 621T285 699T431 727Q500 727 564 703T670 630L643 605Q625 626 601 642T549 670T491 687T431 693Q357 693 298 667T195 594T129 486T106 354Q106 284 129 223T194 115T297 42T431 15Q495 15 557 40T659 117L687 95Z"  />
<glyph unicode="&#xC8;" horiz-adv-x="591" d="M139 34H537V0H102V708H523V674H139V384H499V351H139V34ZM199 908H246L348 764H316L199 908Z"  />
<glyph unicode="&#xC9;" horiz-adv-x="591" d="M139 34H537V0H102V708H523V674H139V384H499V351H139V34ZM312 764H280L382 908H429L312 764Z"  />
<glyph unicode="&#xCA;" horiz-adv-x="591" d="M139 34H537V0H102V708H523V674H139V384H499V351H139V34ZM442 764H406L315 889L224 764H188L293 908H337L442 764Z"  />
<glyph unicode="&#xCB;" horiz-adv-x="591" d="M139 34H537V0H102V708H523V674H139V384H499V351H139V34ZM201 855Q201 869 210 878T233 888Q247 888 256 879T265 855Q265 841 256 832T233 822Q220 822 211 831T201 855ZM367 855Q367 869 376 878T399 888Q412 888 421 879T431 855Q431 841 422 832T399 822Q385 822 376 831T367 855Z"  />
<glyph unicode="&#xCC;" horiz-adv-x="242" d="M140 0H102V708H140V0ZM-8 908H39L141 764H109L-8 908Z"  />
<glyph unicode="&#xCD;" horiz-adv-x="242" d="M140 0H102V708H140V0ZM133 764H101L203 908H250L133 764Z"  />
<glyph unicode="&#xCE;" horiz-adv-x="242" d="M140 0H102V708H140V0ZM247 764H211L120 889L29 764H-7L98 908H142L247 764Z"  />
<glyph unicode="&#xCF;" horiz-adv-x="242" d="M140 0H102V708H140V0ZM6 855Q6 869 15 878T38 888Q52 888 61 879T70 855Q70 841 61 832T38 822Q25 822 16 831T6 855ZM172 855Q172 869 181 878T204 888Q217 888 226 879T236 855Q236 841 227 832T204 822Q190 822 181 831T172 855Z"  />
<glyph unicode="&#xD0;" horiz-adv-x="766" d="M100 355H22V385H100V708H311Q389 708 458 687T581 623T665 512T696 354Q696 263 665 197T581 87T459 22T311 0H100V355ZM138 34H301Q380 34 445 55T557 116T630 216T656 354Q656 432 630 491T558 591T446 653T301 674H138V385H403V355H138V34Z"  />
<glyph unicode="&#xD1;" horiz-adv-x="773" d="M631 52H633V708H671V0H621L142 658H140V0H102V708H152L631 52ZM259 787Q264 824 281 846T326 868Q343 868 358 862T393 844Q417 830 429 825T454 820Q474 820 483 833T497 869H522Q517 832 500 811T454 790Q438 790 424 795T388 814Q365 828 352 833T326 838Q307 838 298 824T283 787H259Z"  />
<glyph unicode="&#xD2;" horiz-adv-x="865" d="M798 354Q798 273 771 205T694 87T578 9T433 -19Q354 -19 287 9T171 86T95 204T67 354Q67 435 94 503T171 621T287 699T433 727Q512 727 578 699T694 622T770 504T798 354ZM759 354Q759 424 736 486T669 594T566 667T433 694Q359 694 299 667T196 594T130 486T106 354Q106 284 129 223T195 115T298 42T433 15Q507 15 567 42T670 115T736 222T759 354ZM331 908H378L480 764H448L331 908Z"  />
<glyph unicode="&#xD3;" horiz-adv-x="865" d="M798 354Q798 273 771 205T694 87T578 9T433 -19Q354 -19 287 9T171 86T95 204T67 354Q67 435 94 503T171 621T287 699T433 727Q512 727 578 699T694 622T770 504T798 354ZM759 354Q759 424 736 486T669 594T566 667T433 694Q359 694 299 667T196 594T130 486T106 354Q106 284 129 223T195 115T298 42T433 15Q507 15 567 42T670 115T736 222T759 354ZM429 764H397L499 908H546L429 764Z"  />
<glyph unicode="&#xD4;" horiz-adv-x="865" d="M798 354Q798 273 771 205T694 87T578 9T433 -19Q354 -19 287 9T171 86T95 204T67 354Q67 435 94 503T171 621T287 699T433 727Q512 727 578 699T694 622T770 504T798 354ZM759 354Q759 424 736 486T669 594T566 667T433 694Q359 694 299 667T196 594T130 486T106 354Q106 284 129 223T195 115T298 42T433 15Q507 15 567 42T670 115T736 222T759 354ZM561 764H525L434 889L343 764H307L412 908H456L561 764Z"  />
<glyph unicode="&#xD5;" horiz-adv-x="865" d="M798 354Q798 273 771 205T694 87T578 9T433 -19Q354 -19 287 9T171 86T95 204T67 354Q67 435 94 503T171 621T287 699T433 727Q512 727 578 699T694 622T770 504T798 354ZM759 354Q759 424 736 486T669 594T566 667T433 694Q359 694 299 667T196 594T130 486T106 354Q106 284 129 223T195 115T298 42T433 15Q507 15 567 42T670 115T736 222T759 354ZM303 787Q308 824 325 846T370 868Q387 868 402 862T437 844Q461 830 473 825T498 820Q518 820 527 833T541 869H566Q561 832 544 811T498 790Q482 790 468 795T432 814Q409 828 396 833T370 838Q351 838 342 824T327 787H303Z"  />
<glyph unicode="&#xD6;" horiz-adv-x="865" d="M798 354Q798 273 771 205T694 87T578 9T433 -19Q354 -19 287 9T171 86T95 204T67 354Q67 435 94 503T171 621T287 699T433 727Q512 727 578 699T694 622T770 504T798 354ZM759 354Q759 424 736 486T669 594T566 667T433 694Q359 694 299 667T196 594T130 486T106 354Q106 284 129 223T195 115T298 42T433 15Q507 15 567 42T670 115T736 222T759 354ZM319 855Q319 869 328 878T351 888Q365 888 374 879T383 855Q383 841 374 832T351 822Q338 822 329 831T319 855ZM485 855Q485 869 494 878T517 888Q530 888 539 879T549 855Q549 841 540 832T517 822Q503 822 494 831T485 855Z"  />
<glyph unicode="&#xD7;" horiz-adv-x="666" d="M334 329L507 502L529 480L356 306L529 133L506 111L334 283L161 111L138 133L312 306L138 480L160 502L334 329Z"  />
<glyph unicode="&#xD8;" horiz-adv-x="865" d="M679 628Q731 578 760 509T789 354Q789 273 762 205T685 87T569 9T424 -19Q353 -19 292 3T183 66L113 -13L92 7L162 86Q113 135 86 203T58 354Q58 435 85 503T162 621T278 699T424 727Q491 727 550 707T657 648L727 727L748 707L679 628ZM208 93Q250 56 303 35T424 14Q498 14 558 41T661 114T727 222T750 354Q750 426 726 489T654 600L208 93ZM633 621Q592 655 540 674T424 694Q350 694 290 667T187 594T121 486T97 354Q97 284 120 222T187 114L633 621Z"  />
<glyph unicode="&#xD9;" horiz-adv-x="725" d="M363 -19Q286 -19 235 5T152 69T108 160T94 267V708H132V272Q132 230 141 185T175 101T245 39T363 14Q434 14 479 38T549 99T584 183T594 272V708H631V267Q631 212 618 161T573 69T491 5T363 -19ZM256 908H303L405 764H373L256 908Z"  />
<glyph unicode="&#xDA;" horiz-adv-x="725" d="M363 -19Q286 -19 235 5T152 69T108 160T94 267V708H132V272Q132 230 141 185T175 101T245 39T363 14Q434 14 479 38T549 99T584 183T594 272V708H631V267Q631 212 618 161T573 69T491 5T363 -19ZM350 764H318L420 908H467L350 764Z"  />
<glyph unicode="&#xDB;" horiz-adv-x="725" d="M363 -19Q286 -19 235 5T152 69T108 160T94 267V708H132V272Q132 230 141 185T175 101T245 39T363 14Q434 14 479 38T549 99T584 183T594 272V708H631V267Q631 212 618 161T573 69T491 5T363 -19ZM490 764H454L363 889L272 764H236L341 908H385L490 764Z"  />
<glyph unicode="&#xDC;" horiz-adv-x="725" d="M363 -19Q286 -19 235 5T152 69T108 160T94 267V708H132V272Q132 230 141 185T175 101T245 39T363 14Q434 14 479 38T549 99T584 183T594 272V708H631V267Q631 212 618 161T573 69T491 5T363 -19ZM248 855Q248 869 257 878T280 888Q294 888 303 879T312 855Q312 841 303 832T280 822Q267 822 258 831T248 855ZM414 855Q414 869 423 878T446 888Q459 888 468 879T478 855Q478 841 469 832T446 822Q432 822 423 831T414 855Z"  />
<glyph unicode="&#xDD;" horiz-adv-x="558" d="M298 0H260V308L10 708H56L280 342L504 708H547L298 308V0ZM292 764H260L362 908H409L292 764Z"  />
<glyph unicode="&#xDE;" horiz-adv-x="574" d="M102 708H140V551H297Q340 551 380 542T452 511T503 456T522 371Q522 325 505 291T459 233T391 197T305 185H140V0H102V708ZM140 218H303Q339 218 371 226T429 254T468 301T483 371Q483 412 468 440T427 485T368 510T299 518H140V218Z"  />
<glyph unicode="&#xDF;" horiz-adv-x="591" d="M134 0H98V540Q98 586 109 627T145 700T208 749T299 768Q339 768 373 756T432 722T471 667T485 594Q485 525 449 485T355 430V428Q392 423 424 408T481 366T519 301T533 213Q533 163 517 122T471 51T399 5T305 -11Q294 -11 281 -10T255 -7V25Q269 23 281 22T302 21Q391 21 443 73T495 214Q495 264 480 301T437 362T372 399T291 411H278V444H291Q324 444 353 453T403 481T437 528T449 593Q449 627 438 653T406 698T359 726T299 736Q251 736 219 719T168 673T142 609T134 537V0Z"  />
<glyph unicode="&#xE0;" horiz-adv-x="519" d="M219 -13Q191 -13 164 -6T114 18T77 60T63 122Q63 172 88 202T152 248T237 270T327 275H393V305Q393 377 355 411T252 445Q210 445 175 430T112 390L92 416Q123 444 165 460T254 476Q332 476 380 435T428 307V104Q428 78 430 49T436 0H402Q399 19 397 49T395 99H392Q369 41 322 14T219 -13ZM225 17Q271 17 303 34T355 80T384 145T393 219V246H337Q298 246 256 242T179 225T122 188T99 123Q99 93 111 73T141 41T181 23T225 17ZM158 708H205L307 564H275L158 708Z"  />
<glyph unicode="&#xE1;" horiz-adv-x="519" d="M219 -13Q191 -13 164 -6T114 18T77 60T63 122Q63 172 88 202T152 248T237 270T327 275H393V305Q393 377 355 411T252 445Q210 445 175 430T112 390L92 416Q123 444 165 460T254 476Q332 476 380 435T428 307V104Q428 78 430 49T436 0H402Q399 19 397 49T395 99H392Q369 41 322 14T219 -13ZM225 17Q271 17 303 34T355 80T384 145T393 219V246H337Q298 246 256 242T179 225T122 188T99 123Q99 93 111 73T141 41T181 23T225 17ZM259 564H227L329 708H376L259 564Z"  />
<glyph unicode="&#xE2;" horiz-adv-x="519" d="M219 -13Q191 -13 164 -6T114 18T77 60T63 122Q63 172 88 202T152 248T237 270T327 275H393V305Q393 377 355 411T252 445Q210 445 175 430T112 390L92 416Q123 444 165 460T254 476Q332 476 380 435T428 307V104Q428 78 430 49T436 0H402Q399 19 397 49T395 99H392Q369 41 322 14T219 -13ZM225 17Q271 17 303 34T355 80T384 145T393 219V246H337Q298 246 256 242T179 225T122 188T99 123Q99 93 111 73T141 41T181 23T225 17ZM382 564H346L255 689L164 564H128L233 708H277L382 564Z"  />
<glyph unicode="&#xE3;" horiz-adv-x="519" d="M219 -13Q191 -13 164 -6T114 18T77 60T63 122Q63 172 88 202T152 248T237 270T327 275H393V305Q393 377 355 411T252 445Q210 445 175 430T112 390L92 416Q123 444 165 460T254 476Q332 476 380 435T428 307V104Q428 78 430 49T436 0H402Q399 19 397 49T395 99H392Q369 41 322 14T219 -13ZM225 17Q271 17 303 34T355 80T384 145T393 219V246H337Q298 246 256 242T179 225T122 188T99 123Q99 93 111 73T141 41T181 23T225 17ZM124 587Q129 624 146 646T191 668Q208 668 223 662T258 644Q282 630 294 625T319 620Q339 620 348 633T362 669H387Q382 632 365 611T319 590Q303 590 289 595T253 614Q230 628 217 633T191 638Q172 638 163 624T148 587H124Z"  />
<glyph unicode="&#xE4;" horiz-adv-x="519" d="M219 -13Q191 -13 164 -6T114 18T77 60T63 122Q63 172 88 202T152 248T237 270T327 275H393V305Q393 377 355 411T252 445Q210 445 175 430T112 390L92 416Q123 444 165 460T254 476Q332 476 380 435T428 307V104Q428 78 430 49T436 0H402Q399 19 397 49T395 99H392Q369 41 322 14T219 -13ZM225 17Q271 17 303 34T355 80T384 145T393 219V246H337Q298 246 256 242T179 225T122 188T99 123Q99 93 111 73T141 41T181 23T225 17ZM141 655Q141 669 150 678T173 688Q187 688 196 679T205 655Q205 641 196 632T173 622Q160 622 151 631T141 655ZM307 655Q307 669 316 678T339 688Q352 688 361 679T371 655Q371 641 362 632T339 622Q325 622 316 631T307 655Z"  />
<glyph unicode="&#xE5;" horiz-adv-x="519" d="M219 -13Q191 -13 164 -6T114 18T77 60T63 122Q63 172 88 202T152 248T237 270T327 275H393V305Q393 377 355 411T252 445Q210 445 175 430T112 390L92 416Q123 444 165 460T254 476Q332 476 380 435T428 307V104Q428 78 430 49T436 0H402Q399 19 397 49T395 99H392Q369 41 322 14T219 -13ZM225 17Q271 17 303 34T355 80T384 145T393 219V246H337Q298 246 256 242T179 225T122 188T99 123Q99 93 111 73T141 41T181 23T225 17ZM352 650Q352 630 345 613T324 582T293 562T256 555Q236 555 219 562T189 582T168 612T160 650Q160 670 167 687T188 717T219 737T256 745Q275 745 292 738T323 718T344 688T352 650ZM328 650Q328 680 307 701T256 722Q226 722 205 701T184 650Q184 620 205 599T256 578Q286 578 307 599T328 650Z"  />
<glyph unicode="&#xE6;" horiz-adv-x="876" d="M224 -13Q195 -13 166 -6T114 16T77 56T63 116Q63 161 87 189T150 233T236 254T328 260H399V297Q399 367 362 406T255 445Q213 445 177 430T111 390L91 415Q123 444 167 460T258 476Q334 476 375 441T425 352Q451 408 499 442T610 476Q661 476 700 457T764 407T803 336T816 252V229H433Q433 190 444 153T479 86T537 38T618 19Q668 19 708 41T774 101L799 80Q730 -13 618 -13Q547 -13 495 25T420 129Q406 66 357 27T224 -13ZM228 17Q276 17 308 31T361 69T390 124T399 188V229H341Q297 229 254 226T177 210T121 176T100 116Q100 87 112 68T142 38T183 22T228 17ZM780 260Q779 301 767 335T732 393T679 431T609 445Q565 445 533 426T479 379T446 318T434 260H780Z"  />
<glyph unicode="&#xE7;" horiz-adv-x="486" d="M429 387Q406 414 372 429T299 445Q253 445 216 428T153 382T112 313T98 231Q98 187 112 149T152 81T216 36T299 19Q340 19 374 33T436 73L458 51Q428 19 391 4T308 -13L262 -83Q284 -76 310 -76Q325 -76 340 -79T367 -91T387 -113T395 -145Q395 -169 384 -185T356 -210T319 -223T281 -227Q262 -227 237 -222T190 -207L198 -184Q217 -193 239 -197T280 -201Q293 -201 307 -199T334 -190T354 -173T362 -145Q362 -117 341 -108T296 -98Q283 -98 265 -101T235 -111L222 -100L280 -12Q231 -9 191 10T121 61T76 137T60 231Q60 284 77 329T127 406T202 457T299 476Q345 476 385 459T454 410L429 387Z"  />
<glyph unicode="&#xE8;" horiz-adv-x="561" d="M465 259Q464 300 451 334T414 393T357 431T284 445Q237 445 203 426T145 379T111 319T98 259H465ZM293 -13Q242 -13 199 5T125 57T77 135T60 235Q60 287 77 331T125 408T196 458T284 476Q338 476 378 457T446 407T487 335T501 251Q501 246 501 240T500 229H97Q97 189 110 151T147 84T208 36T293 18Q347 18 387 40T458 100L483 79Q411 -13 293 -13ZM174 708H221L323 564H291L174 708Z"  />
<glyph unicode="&#xE9;" horiz-adv-x="561" d="M465 259Q464 300 451 334T414 393T357 431T284 445Q237 445 203 426T145 379T111 319T98 259H465ZM293 -13Q242 -13 199 5T125 57T77 135T60 235Q60 287 77 331T125 408T196 458T284 476Q338 476 378 457T446 407T487 335T501 251Q501 246 501 240T500 229H97Q97 189 110 151T147 84T208 36T293 18Q347 18 387 40T458 100L483 79Q411 -13 293 -13ZM287 564H255L357 708H404L287 564Z"  />
<glyph unicode="&#xEA;" horiz-adv-x="561" d="M465 259Q464 300 451 334T414 393T357 431T284 445Q237 445 203 426T145 379T111 319T98 259H465ZM293 -13Q242 -13 199 5T125 57T77 135T60 235Q60 287 77 331T125 408T196 458T284 476Q338 476 378 457T446 407T487 335T501 251Q501 246 501 240T500 229H97Q97 189 110 151T147 84T208 36T293 18Q347 18 387 40T458 100L483 79Q411 -13 293 -13ZM417 564H381L290 689L199 564H163L268 708H312L417 564Z"  />
<glyph unicode="&#xEB;" horiz-adv-x="561" d="M465 259Q464 300 451 334T414 393T357 431T284 445Q237 445 203 426T145 379T111 319T98 259H465ZM293 -13Q242 -13 199 5T125 57T77 135T60 235Q60 287 77 331T125 408T196 458T284 476Q338 476 378 457T446 407T487 335T501 251Q501 246 501 240T500 229H97Q97 189 110 151T147 84T208 36T293 18Q347 18 387 40T458 100L483 79Q411 -13 293 -13ZM173 655Q173 669 182 678T205 688Q219 688 228 679T237 655Q237 641 228 632T205 622Q192 622 183 631T173 655ZM339 655Q339 669 348 678T371 688Q384 688 393 679T403 655Q403 641 394 632T371 622Q357 622 348 631T339 655Z"  />
<glyph unicode="&#xEC;" horiz-adv-x="233" d="M135 0H99V462H135V0ZM-13 708H34L136 564H104L-13 708Z"  />
<glyph unicode="&#xED;" horiz-adv-x="233" d="M135 0H99V462H135V0ZM130 564H98L200 708H247L130 564Z"  />
<glyph unicode="&#xEE;" horiz-adv-x="233" d="M135 0H99V462H135V0ZM246 564H210L119 689L28 564H-8L97 708H141L246 564Z"  />
<glyph unicode="&#xEF;" horiz-adv-x="233" d="M135 0H99V462H135V0ZM4 655Q4 669 13 678T36 688Q50 688 59 679T68 655Q68 641 59 632T36 622Q23 622 14 631T4 655ZM170 655Q170 669 179 678T202 688Q215 688 224 679T234 655Q234 641 225 632T202 622Q188 622 179 631T170 655Z"  />
<glyph unicode="&#xF0;" horiz-adv-x="607" d="M95 232Q95 188 109 149T149 81T214 35T300 18Q348 18 386 35T450 81T491 149T506 232Q506 276 492 315T451 382T386 427T300 444Q252 444 214 428T150 383T109 315T95 232ZM342 666Q370 638 405 594T471 493T523 373T544 241Q544 189 528 143T480 62T404 7T300 -13Q247 -13 203 5T126 56T76 134T58 232Q58 285 76 330T126 407T202 458T300 476Q350 476 392 459T471 405L476 407Q461 441 442 475T400 541T354 600T309 648L197 588L178 609L288 669Q260 695 236 714T190 748L220 768Q246 751 270 730T319 686L423 743L446 723L342 666Z"  />
<glyph unicode="&#xF1;" horiz-adv-x="575" d="M131 462Q132 453 132 439T133 410T134 380T135 354H137Q147 382 165 405T205 443T255 467T310 476Q357 476 389 460T442 417T472 355T482 281V0H446V271Q446 302 440 333T418 389T375 429T307 445Q272 445 242 431T188 390T151 324T137 233V0H100V350Q100 360 100 375T100 406T98 437T96 462H131ZM160 587Q165 624 182 646T227 668Q244 668 259 662T294 644Q318 630 330 625T355 620Q375 620 384 633T398 669H423Q418 632 401 611T355 590Q339 590 325 595T289 614Q266 628 253 633T227 638Q208 638 199 624T184 587H160Z"  />
<glyph unicode="&#xF2;" horiz-adv-x="607" d="M547 232Q547 179 529 134T479 57T402 6T303 -13Q250 -13 205 5T128 56T78 134T60 232Q60 285 78 330T128 407T205 458T303 476Q357 476 401 458T478 408T529 330T547 232ZM509 232Q509 276 495 315T454 383T389 428T303 445Q255 445 217 429T153 383T112 315T98 232Q98 188 112 149T152 81T217 35T303 18Q351 18 389 35T453 81T494 149T509 232ZM194 708H241L343 564H311L194 708Z"  />
<glyph unicode="&#xF3;" horiz-adv-x="607" d="M547 232Q547 179 529 134T479 57T402 6T303 -13Q250 -13 205 5T128 56T78 134T60 232Q60 285 78 330T128 407T205 458T303 476Q357 476 401 458T478 408T529 330T547 232ZM509 232Q509 276 495 315T454 383T389 428T303 445Q255 445 217 429T153 383T112 315T98 232Q98 188 112 149T152 81T217 35T303 18Q351 18 389 35T453 81T494 149T509 232ZM298 564H266L368 708H415L298 564Z"  />
<glyph unicode="&#xF4;" horiz-adv-x="607" d="M547 232Q547 179 529 134T479 57T402 6T303 -13Q250 -13 205 5T128 56T78 134T60 232Q60 285 78 330T128 407T205 458T303 476Q357 476 401 458T478 408T529 330T547 232ZM509 232Q509 276 495 315T454 383T389 428T303 445Q255 445 217 429T153 383T112 315T98 232Q98 188 112 149T152 81T217 35T303 18Q351 18 389 35T453 81T494 149T509 232ZM431 564H395L304 689L213 564H177L282 708H326L431 564Z"  />
<glyph unicode="&#xF5;" horiz-adv-x="607" d="M547 232Q547 179 529 134T479 57T402 6T303 -13Q250 -13 205 5T128 56T78 134T60 232Q60 285 78 330T128 407T205 458T303 476Q357 476 401 458T478 408T529 330T547 232ZM509 232Q509 276 495 315T454 383T389 428T303 445Q255 445 217 429T153 383T112 315T98 232Q98 188 112 149T152 81T217 35T303 18Q351 18 389 35T453 81T494 149T509 232ZM173 587Q178 624 195 646T240 668Q257 668 272 662T307 644Q331 630 343 625T368 620Q388 620 397 633T411 669H436Q431 632 414 611T368 590Q352 590 338 595T302 614Q279 628 266 633T240 638Q221 638 212 624T197 587H173Z"  />
<glyph unicode="&#xF6;" horiz-adv-x="607" d="M547 232Q547 179 529 134T479 57T402 6T303 -13Q250 -13 205 5T128 56T78 134T60 232Q60 285 78 330T128 407T205 458T303 476Q357 476 401 458T478 408T529 330T547 232ZM509 232Q509 276 495 315T454 383T389 428T303 445Q255 445 217 429T153 383T112 315T98 232Q98 188 112 149T152 81T217 35T303 18Q351 18 389 35T453 81T494 149T509 232ZM190 655Q190 669 199 678T222 688Q236 688 245 679T254 655Q254 641 245 632T222 622Q209 622 200 631T190 655ZM356 655Q356 669 365 678T388 688Q401 688 410 679T420 655Q420 641 411 632T388 622Q374 622 365 631T356 655Z"  />
<glyph unicode="&#xF7;" horiz-adv-x="666" d="M578 287H89V319H578V287ZM375 468Q375 451 363 439T333 426Q316 426 304 438T292 468Q292 486 304 498T333 511Q350 511 362 499T375 468ZM375 138Q375 120 363 108T333 95Q316 95 304 107T292 138Q292 155 303 167T333 180Q350 180 362 168T375 138Z"  />
<glyph unicode="&#xF8;" horiz-adv-x="607" d="M50 2L117 69Q90 101 75 142T60 232Q60 285 78 330T128 407T204 458T303 476Q351 476 392 461T465 420L526 481L546 462L484 400Q513 369 530 327T547 232Q547 179 529 134T479 57T402 6T303 -13Q252 -13 210 3T136 50L70 -17L50 2ZM442 396Q416 419 381 432T303 446Q255 446 217 429T152 383T111 315T97 232Q97 192 108 157T141 93L442 396ZM302 17Q350 17 388 34T454 80T495 148T510 232Q510 274 498 311T460 376L159 73Q185 47 221 32T302 17Z"  />
<glyph unicode="&#xF9;" horiz-adv-x="575" d="M442 0Q441 10 441 24T440 53T439 82T438 108H436Q426 79 408 57T367 19T316 -5T261 -13Q214 -13 182 3T130 46T101 108T92 182V462H128V192Q128 161 134 130T155 73T198 33T266 17Q301 17 332 31T386 73T423 141T437 236V462H473V112Q473 101 473 87T474 56T476 25T478 0H442ZM166 708H213L315 564H283L166 708Z"  />
<glyph unicode="&#xFA;" horiz-adv-x="575" d="M442 0Q441 10 441 24T440 53T439 82T438 108H436Q426 79 408 57T367 19T316 -5T261 -13Q214 -13 182 3T130 46T101 108T92 182V462H128V192Q128 161 134 130T155 73T198 33T266 17Q301 17 332 31T386 73T423 141T437 236V462H473V112Q473 101 473 87T474 56T476 25T478 0H442ZM274 564H242L344 708H391L274 564Z"  />
<glyph unicode="&#xFB;" horiz-adv-x="575" d="M442 0Q441 10 441 24T440 53T439 82T438 108H436Q426 79 408 57T367 19T316 -5T261 -13Q214 -13 182 3T130 46T101 108T92 182V462H128V192Q128 161 134 130T155 73T198 33T266 17Q301 17 332 31T386 73T423 141T437 236V462H473V112Q473 101 473 87T474 56T476 25T478 0H442ZM409 564H373L282 689L191 564H155L260 708H304L409 564Z"  />
<glyph unicode="&#xFC;" horiz-adv-x="575" d="M442 0Q441 10 441 24T440 53T439 82T438 108H436Q426 79 408 57T367 19T316 -5T261 -13Q214 -13 182 3T130 46T101 108T92 182V462H128V192Q128 161 134 130T155 73T198 33T266 17Q301 17 332 31T386 73T423 141T437 236V462H473V112Q473 101 473 87T474 56T476 25T478 0H442ZM167 655Q167 669 176 678T199 688Q213 688 222 679T231 655Q231 641 222 632T199 622Q186 622 177 631T167 655ZM333 655Q333 669 342 678T365 688Q378 688 387 679T397 655Q397 641 388 632T365 622Q351 622 342 631T333 655Z"  />
<glyph unicode="&#xFD;" horiz-adv-x="447" d="M73 -241Q62 -241 49 -240T26 -235L32 -202Q51 -209 73 -209Q93 -209 107 -202T133 -182T153 -155T167 -122L209 -9L22 462H62L228 31L386 462H425L195 -142Q177 -189 149 -215T73 -241ZM230 564H198L300 708H347L230 564Z"  />
<glyph unicode="&#xFE;" horiz-adv-x="628" d="M334 -13Q273 -13 219 18T137 110H135V-240H99V756H135V351H137Q167 413 220 444T334 476Q386 476 429 458T503 407T551 329T568 231Q568 178 551 134T502 57T428 6T334 -13ZM531 231Q531 274 517 313T477 381T415 427T332 444Q288 444 251 428T188 382T147 314T132 231Q132 187 146 149T187 81T251 35T332 18Q378 18 414 35T477 81T517 148T531 231Z"  />
<glyph unicode="&#xFF;" horiz-adv-x="447" d="M73 -241Q62 -241 49 -240T26 -235L32 -202Q51 -209 73 -209Q93 -209 107 -202T133 -182T153 -155T167 -122L209 -9L22 462H62L228 31L386 462H425L195 -142Q177 -189 149 -215T73 -241ZM113 655Q113 669 122 678T145 688Q159 688 168 679T177 655Q177 641 168 632T145 622Q132 622 123 631T113 655ZM279 655Q279 669 288 678T311 688Q324 688 333 679T343 655Q343 641 334 632T311 622Q297 622 288 631T279 655Z"  />
<glyph unicode="&#x401;" horiz-adv-x="591" d="M201 855Q201 869 210 878T232 888Q246 888 255 879T264 855Q264 841 255 832T232 822Q219 822 210 831T201 855ZM367 855Q367 869 376 878T398 888Q412 888 421 879T430 855Q430 841 421 832T398 822Q385 822 376 831T367 855ZM102 708H523V674H139V384H499V351H139V34H537V0H102V708Z"  />
<glyph unicode="&#x402;" horiz-adv-x="779" d="M474 -9Q451 -9 432 -7T398 -2L406 32Q416 30 436 28T472 25Q574 25 631 69T689 202Q689 290 631 335T467 381Q444 381 419 379T370 372T326 364T293 355V0H256V674H16V708H533V674H293V390Q306 394 327 398T372 405T421 411T469 414Q588 414 657 361T727 202Q727 150 710 111T659 45T579 5T474 -9Z"  />
<glyph unicode="&#x403;" horiz-adv-x="496" d="M280 764H249L351 908H398L280 764ZM102 708H479V674H140V0H102V708Z"  />
<glyph unicode="&#x404;" horiz-adv-x="723" d="M431 -19Q351 -19 284 9T169 86T94 204T67 354Q67 435 94 503T169 621T285 699T431 727Q465 727 499 721T565 702T623 672T671 630L643 605Q625 626 601 642T549 670T491 688T431 694Q362 694 305 670T205 604T138 506T107 384H495V351H106V347Q107 278 130 218T196 112T298 41T431 14Q495 14 557 39T659 117L687 95Q666 68 638 47T577 12T507 -11T431 -19Z"  />
<glyph unicode="&#x405;" horiz-adv-x="568" d="M458 622Q432 656 391 675T299 694Q266 694 234 685T175 656T133 608T117 540Q117 485 145 454T216 402T308 366T400 329T471 272T500 175Q500 127 482 91T434 30T363 -6T280 -19Q214 -19 160 4T68 72L93 97Q131 57 178 36T280 15Q315 15 348 25T406 56T447 105T462 173Q462 214 446 241T402 287T341 319T271 345T201 372T140 408T97 461T80 539Q80 585 98 620T147 679T218 715T300 727Q360 727 408 706T486 646L458 622Z"  />
<glyph unicode="&#x406;" horiz-adv-x="242" d="M102 708H140V0H102V708Z"  />
<glyph unicode="&#x407;" horiz-adv-x="242" d="M6 855Q6 869 15 878T38 888Q52 888 61 879T70 855Q70 841 61 832T38 822Q25 822 16 831T6 855ZM172 855Q172 869 181 878T204 888Q217 888 226 879T236 855Q236 841 227 832T204 822Q190 822 181 831T172 855ZM102 708H140V0H102V708Z"  />
<glyph unicode="&#x408;" horiz-adv-x="484" d="M203 -18Q136 -18 90 17T28 103L62 115Q78 71 114 43T200 15Q241 15 269 29T315 68T341 127T349 200V708H386V196Q386 152 376 113T343 45T287 -1T203 -18Z"  />
<glyph unicode="&#x409;" horiz-adv-x="1088" d="M58 -7Q49 -7 35 -6T7 -1L15 33Q26 31 36 29T54 27Q107 27 142 60T198 159T227 322T236 549V708H640V389H807Q852 389 893 378T966 342T1017 281T1036 191Q1036 138 1016 102T963 43T886 10T798 0H602V675H273V538Q273 408 264 307T230 136T164 30T58 -7ZM795 33Q834 33 870 41T935 67T981 116T998 191Q998 234 983 265T941 316T879 346T805 356H640V33H795Z"  />
<glyph unicode="&#x40A;" horiz-adv-x="1074" d="M102 708H140V389H588V708H625V389H793Q838 389 879 378T952 342T1003 281T1022 191Q1022 138 1002 102T949 43T872 10T783 0H588V356H140V0H102V708ZM781 33Q820 33 856 41T921 67T967 116T984 191Q984 234 968 265T926 316T864 346T791 356H625V33H781Z"  />
<glyph unicode="&#x40B;" horiz-adv-x="777" d="M256 674H16V708H533V674H293V390Q322 398 370 406T470 414Q528 414 569 402T636 366T674 311T686 240V0H649V238Q649 268 640 294T609 339T553 369T471 380Q417 380 369 373T293 357V0H256V674Z"  />
<glyph unicode="&#x40C;" horiz-adv-x="584" d="M304 764H273L375 908H422L304 764ZM102 708H140V385L491 708H545L186 384L563 0H509L140 380V0H102V708Z"  />
<glyph unicode="&#x40E;" horiz-adv-x="611" d="M120 -7Q109 -7 95 -5T70 0L77 34Q85 32 96 30T119 28Q156 28 181 47T229 107L290 218L12 708H55L310 257L558 708H599L261 92Q235 45 203 19T120 -7ZM310 773Q253 773 219 808T179 895L204 900Q215 851 243 828T310 804Q349 804 377 827T416 900L441 895Q435 844 401 809T310 773Z"  />
<glyph unicode="&#x40F;" horiz-adv-x="721" d="M342 0H102V708H140V34H581V708H618V0H378V-182H342V0Z"  />
<glyph unicode="&#x410;" horiz-adv-x="677" d="M322 708H363L661 0H620L538 198H140L57 0H16L322 708ZM524 231L341 674L154 231H524Z"  />
<glyph unicode="&#x411;" horiz-adv-x="611" d="M102 708H499V674H140V389H319Q364 389 405 378T478 342T529 281T548 191Q548 138 528 102T475 43T399 10T310 0H102V708ZM307 33Q346 33 382 41T447 67T493 116T510 191Q510 234 495 265T453 316T391 346T318 356H140V33H307Z"  />
<glyph unicode="&#x412;" horiz-adv-x="619" d="M102 708H301Q341 708 381 700T452 673T503 620T523 537Q523 502 512 475T481 428T437 395T385 376V374Q414 371 444 359T499 325T540 269T556 191Q556 138 536 102T482 43T405 10T317 0H102V708ZM309 33Q353 33 391 42T458 70T502 118T518 190Q518 234 501 265T456 317T393 346T321 356H140V33H309ZM302 388Q335 388 367 396T426 421T469 466T485 533Q485 573 469 600T427 644T365 668T292 675H140V388H302Z"  />
<glyph unicode="&#x413;" horiz-adv-x="496" d="M102 708H479V674H140V0H102V708Z"  />
<glyph unicode="&#x414;" horiz-adv-x="735" d="M17 34H72Q138 98 172 213T206 510V708H620V34H702V-182H665V0H54V-182H17V34ZM583 34V674H243V510Q243 328 210 213T120 34H583Z"  />
<glyph unicode="&#x415;" horiz-adv-x="591" d="M102 708H523V674H139V384H499V351H139V34H537V0H102V708Z"  />
<glyph unicode="&#x416;" horiz-adv-x="905" d="M388 384L40 708H94L434 385V708H471V385L811 708H865L517 384L884 0H830L471 380V0H434V380L75 0H21L388 384Z"  />
<glyph unicode="&#x417;" horiz-adv-x="565" d="M262 -19Q194 -19 140 5T48 73L74 97Q111 57 158 36T262 14Q302 14 337 26T400 62T442 119T458 195Q458 234 442 264T398 315T333 345T254 356H200V389H247Q285 389 319 398T378 427T419 475T434 543Q434 578 421 606T386 654T332 684T264 695Q212 695 173 677T101 623L76 645Q148 727 262 727Q358 727 414 679T470 542Q470 508 459 480T430 431T386 395T333 374V373Q367 368 396 354T448 316T482 263T495 195Q495 146 478 107T429 39T355 -4T262 -19Z"  />
<glyph unicode="&#x418;" horiz-adv-x="743" d="M102 708H140V54H142L593 708H640V0H603V655H600L149 0H102V708Z"  />
<glyph unicode="&#x419;" horiz-adv-x="743" d="M102 708H140V54H142L593 708H640V0H603V655H600L149 0H102V708ZM372 773Q315 773 281 808T241 895L266 900Q277 851 305 828T372 804Q411 804 439 827T478 900L503 895Q497 844 463 809T372 773Z"  />
<glyph unicode="&#x41A;" horiz-adv-x="584" d="M102 708H140V385L491 708H545L186 384L563 0H509L140 380V0H102V708Z"  />
<glyph unicode="&#x41B;" horiz-adv-x="742" d="M58 -7Q49 -7 35 -6T7 -1L15 33Q26 31 36 29T54 27Q107 27 142 60T198 159T227 322T236 549V708H640V0H602V675H273V538Q273 408 264 307T230 136T164 30T58 -7Z"  />
<glyph unicode="&#x41C;" horiz-adv-x="900" d="M102 708H163L450 60L737 708H798V0H760V662H757L461 0H437L142 662H140V0H102V708Z"  />
<glyph unicode="&#x41D;" horiz-adv-x="728" d="M102 708H140V384H588V708H625V0H588V350H140V0H102V708Z"  />
<glyph unicode="&#x41E;" horiz-adv-x="865" d="M433 -19Q354 -19 287 9T171 86T95 204T67 354Q67 435 94 503T171 621T287 699T433 727Q512 727 578 699T694 622T770 504T798 354Q798 273 771 205T694 87T578 9T433 -19ZM433 14Q507 14 567 41T670 114T736 222T759 354Q759 424 736 486T669 594T566 667T433 694Q359 694 299 667T196 594T130 486T106 354Q106 284 129 223T195 115T298 41T433 14Z"  />
<glyph unicode="&#x41F;" horiz-adv-x="721" d="M102 708H618V0H581V674H140V0H102V708Z"  />
<glyph unicode="&#x420;" horiz-adv-x="574" d="M102 708H297Q340 708 380 699T452 668T503 613T522 528Q522 482 505 447T459 389T391 353T305 341H140V0H102V708ZM305 374Q341 374 373 383T430 410T469 458T484 528Q484 569 469 597T428 642T369 667T301 675H140V374H305Z"  />
<glyph unicode="&#x421;" horiz-adv-x="723" d="M687 95Q666 68 638 47T577 12T507 -11T431 -19Q351 -19 284 9T169 86T94 204T67 354Q67 435 94 503T169 621T285 699T431 727Q500 727 564 703T670 630L643 605Q625 626 601 642T549 670T491 687T431 693Q357 693 298 667T195 594T129 486T106 354Q106 284 129 223T194 115T297 42T431 15Q495 15 557 40T659 117L687 95Z"  />
<glyph unicode="&#x422;" horiz-adv-x="549" d="M256 674H16V708H533V674H293V0H256V674Z"  />
<glyph unicode="&#x423;" horiz-adv-x="611" d="M120 -7Q109 -7 95 -5T70 0L77 34Q85 32 96 30T119 28Q156 28 181 47T229 107L290 218L12 708H55L310 257L558 708H599L261 92Q235 45 203 19T120 -7Z"  />
<glyph unicode="&#x424;" horiz-adv-x="801" d="M382 67Q313 68 254 88T152 145T84 238T59 365Q59 437 83 492T150 584T252 641T382 663V727H419V663Q489 661 548 642T651 585T718 492T742 365Q742 293 718 238T650 146T547 88T419 67V-20H382V67ZM382 630Q319 628 267 611T177 559T119 477T98 365Q98 301 119 252T179 170T269 120T382 100V630ZM419 100Q480 102 532 119T623 170T682 252T704 365Q704 428 684 476T626 559T536 610T419 630V100Z"  />
<glyph unicode="&#x425;" horiz-adv-x="608" d="M281 371L52 708H97L305 399L511 708H555L327 371L580 0H534L304 343L74 0H28L281 371Z"  />
<glyph unicode="&#x426;" horiz-adv-x="734" d="M664 0H102V708H140V34H581V708H618V34H700V-182H664V0Z"  />
<glyph unicode="&#x427;" horiz-adv-x="619" d="M480 311Q451 303 401 296T294 288Q239 288 200 300T136 336T99 391T87 462V708H124V464Q124 434 133 408T163 363T216 333T293 322Q354 322 403 329T480 345V708H517V0H480V311Z"  />
<glyph unicode="&#x428;" horiz-adv-x="1071" d="M102 708H140V34H517V708H554V34H931V708H968V0H102V708Z"  />
<glyph unicode="&#x429;" horiz-adv-x="1084" d="M1014 0H102V708H140V34H517V708H554V34H931V708H968V34H1050V-182H1014V0Z"  />
<glyph unicode="&#x42A;" horiz-adv-x="697" d="M211 674H16V708H249V389H416Q461 389 502 378T575 342T626 281T645 191Q645 138 625 102T572 43T495 10T407 0H211V674ZM404 33Q443 33 479 41T544 67T590 116T607 191Q607 234 592 265T550 316T488 346T414 356H249V33H404Z"  />
<glyph unicode="&#x42B;" horiz-adv-x="792" d="M102 708H140V389H307Q352 389 393 378T466 342T517 281T536 191Q536 138 516 102T463 43T386 10T298 0H102V708ZM295 33Q334 33 370 41T435 67T481 116T498 191Q498 234 483 265T441 316T379 346T305 356H140V33H295ZM652 708H689V0H652V708Z"  />
<glyph unicode="&#x42C;" horiz-adv-x="588" d="M102 708H140V389H307Q352 389 393 378T466 342T517 281T536 191Q536 138 516 102T463 43T386 10T298 0H102V708ZM295 33Q334 33 370 41T435 67T481 116T498 191Q498 234 483 265T441 316T379 346T305 356H140V33H295Z"  />
<glyph unicode="&#x42D;" horiz-adv-x="723" d="M292 -19Q253 -19 216 -11T146 11T85 47T36 95L64 117Q104 65 166 40T292 14Q365 14 425 40T527 112T593 219T617 351H228V384H615Q610 449 585 505T518 604T419 670T292 694Q232 694 174 671T80 605L52 630Q94 678 158 702T292 727Q371 727 438 699T553 622T629 504T656 354Q656 273 629 205T554 87T439 9T292 -19Z"  />
<glyph unicode="&#x42E;" horiz-adv-x="1050" d="M646 -18Q571 -18 510 10T404 87T335 204T309 350H140V0H102V708H140V383H310Q314 454 339 516T408 625T512 699T646 726Q722 726 784 697T891 618T959 502T983 360Q983 279 959 210T891 91T784 11T646 -18ZM646 16Q718 16 773 44T867 120T925 230T945 360Q945 422 925 482T867 589T773 664T646 693Q575 693 520 665T426 589T368 482T348 360Q348 292 367 230T425 121T518 45T646 16Z"  />
<glyph unicode="&#x42F;" horiz-adv-x="597" d="M252 321Q214 325 180 338T119 376T77 435T61 517Q61 570 81 606T134 665T211 698T300 708H495V0H457V319H292L99 0H54L252 321ZM457 352V675H302Q263 675 227 667T162 641T116 592T99 517Q99 474 114 443T156 392T218 362T292 352H457Z"  />
<glyph unicode="&#x430;" horiz-adv-x="519" d="M219 -13Q191 -13 164 -6T114 18T77 60T63 122Q63 172 88 202T153 249T240 270T332 275H393V305Q393 377 355 411T252 445Q210 445 175 430T112 390L92 416Q123 444 165 460T254 476Q332 476 380 435T428 307V104Q428 78 430 49T436 0H402Q399 19 397 49T395 99H392Q369 41 322 14T219 -13ZM225 17Q271 17 303 34T355 78T384 138T393 205V246H337Q298 246 256 242T179 225T122 188T99 123Q99 93 111 73T141 41T181 23T225 17Z"  />
<glyph unicode="&#x431;" horiz-adv-x="609" d="M307 -13Q258 -13 215 2T141 51T91 134T72 254Q72 339 76 416T100 553T159 653T269 701L431 721Q457 724 481 732T513 765L539 757Q531 728 509 713T440 691L283 671Q230 664 196 640T142 574T114 474T105 344H108Q142 410 197 441T320 472Q373 472 415 453T487 401T533 324T549 228Q549 175 531 131T481 55T405 5T307 -13ZM307 18Q352 18 390 34T455 78T497 144T512 228Q512 273 498 312T459 379T397 424T315 441Q270 441 232 425T167 379T125 311T109 226Q109 181 123 143T163 77T225 34T307 18Z"  />
<glyph unicode="&#x432;" horiz-adv-x="522" d="M100 462H294Q321 462 347 457T394 439T427 405T440 350Q440 305 413 279T350 245V244Q369 242 389 234T425 212T451 176T462 125Q462 90 449 67T413 28T363 7T306 0H100V462ZM298 32Q325 32 348 37T388 54T415 83T425 127Q425 154 415 173T387 204T349 221T305 227H137V32H298ZM293 258Q313 258 333 263T368 278T394 305T404 346Q404 370 395 386T369 412T332 426T287 431H137V258H293Z"  />
<glyph unicode="&#x433;" horiz-adv-x="417" d="M100 462H394V431H137V0H100V462Z"  />
<glyph unicode="&#x434;" horiz-adv-x="594" d="M27 32H84Q116 73 140 150T164 334V462H480V32H557V-155H522V0H61V-155H27V32ZM444 32V431H200V328Q200 228 178 154T125 32H444Z"  />
<glyph unicode="&#x435;" horiz-adv-x="561" d="M465 259Q464 300 451 334T414 393T357 431T284 445Q237 445 203 426T145 379T111 319T98 259H465ZM293 -13Q242 -13 199 5T125 57T77 135T60 235Q60 287 77 331T125 408T196 458T284 476Q338 476 378 457T446 407T487 335T501 251Q501 246 501 240T500 229H97Q97 189 110 151T147 84T208 36T293 18Q347 18 387 40T458 100L483 79Q411 -13 293 -13Z"  />
<glyph unicode="&#x436;" horiz-adv-x="709" d="M292 243L45 462H97L335 245H337V462H373V245L612 462H664L417 243L691 0H637L373 238V0H337V238H335L72 0H19L292 243Z"  />
<glyph unicode="&#x437;" horiz-adv-x="459" d="M218 -13Q102 -13 44 67L70 87Q125 18 217 18Q246 18 271 25T315 46T345 80T356 128Q356 178 317 202T218 227H170V258H213Q270 258 307 286T344 357Q344 402 311 423T222 445Q183 445 152 431T94 384L68 404Q97 442 135 459T223 476Q295 476 337 446T380 357Q380 314 351 285T280 245V244Q329 238 360 207T392 127Q392 95 379 69T343 25T288 -3T218 -13Z"  />
<glyph unicode="&#x438;" horiz-adv-x="590" d="M100 462H137V53L450 462H490V0H454V413H452L139 0H100V462Z"  />
<glyph unicode="&#x439;" horiz-adv-x="590" d="M298 573Q241 573 207 608T167 695L192 700Q203 651 231 628T298 604Q337 604 365 627T404 700L429 695Q423 644 389 609T298 573ZM100 462H137V53L450 462H490V0H454V413H452L139 0H100V462Z"  />
<glyph unicode="&#x43A;" horiz-adv-x="478" d="M101 462H137V245H139L380 462H432L181 243L459 0H405L139 238H137V0H101V462Z"  />
<glyph unicode="&#x43B;" horiz-adv-x="581" d="M54 -5Q46 -5 34 -4T16 0L23 32Q28 30 35 29T51 27Q86 27 109 46T147 102T167 187T173 297V462H480V0H444V431H208V289Q208 228 201 175T177 81T130 18T54 -5Z"  />
<glyph unicode="&#x43C;" horiz-adv-x="717" d="M100 462H158L358 53L561 462H617V0H581V424H579L370 0H347L139 423H137V0H100V462Z"  />
<glyph unicode="&#x43D;" horiz-adv-x="582" d="M100 462H137V256H445V462H481V0H445V225H137V0H100V462Z"  />
<glyph unicode="&#x43E;" horiz-adv-x="607" d="M303 -13Q250 -13 205 5T128 56T78 134T60 232Q60 285 78 330T128 407T205 458T303 476Q357 476 401 458T478 408T529 330T547 232Q547 179 529 134T479 57T402 6T303 -13ZM303 18Q351 18 389 35T453 81T494 149T509 232Q509 276 495 315T454 383T389 428T303 445Q255 445 217 429T153 383T112 315T98 232Q98 188 112 149T152 81T217 35T303 18Z"  />
<glyph unicode="&#x43F;" horiz-adv-x="575" d="M100 462H475V0H439V431H137V0H100V462Z"  />
<glyph unicode="&#x440;" horiz-adv-x="629" d="M98 462H135V351H138Q167 413 220 444T335 476Q387 476 430 458T504 406T552 328T569 231Q569 179 552 135T504 57T430 6T335 -13Q305 -13 276 -5T220 18T173 57T138 110H135V-240H98V462ZM333 18Q379 18 415 35T477 81T517 148T531 231Q531 274 517 313T478 381T416 427T333 445Q289 445 252 428T188 382T146 314T131 231Q131 187 146 149T188 81T252 35T333 18Z"  />
<glyph unicode="&#x441;" horiz-adv-x="486" d="M429 387Q406 414 372 429T299 445Q253 445 216 428T153 382T112 313T98 231Q98 187 112 149T152 81T216 36T299 19Q340 19 374 33T436 73L458 51Q426 18 387 3T299 -13Q246 -13 203 5T127 55T78 133T60 231Q60 284 77 329T127 406T202 457T299 476Q345 476 385 459T454 410L429 387Z"  />
<glyph unicode="&#x442;" horiz-adv-x="434" d="M199 431H23V462H411V431H235V0H199V431Z"  />
<glyph unicode="&#x443;" horiz-adv-x="447" d="M73 -241Q62 -241 49 -240T26 -235L32 -202Q51 -209 73 -209Q93 -209 107 -202T133 -182T153 -155T167 -122L209 -9L22 462H62L228 34L386 462H425L195 -142Q177 -189 149 -215T73 -241Z"  />
<glyph unicode="&#x444;" horiz-adv-x="687" d="M325 -11Q198 -9 128 54T57 232Q57 344 127 407T325 475V767H362V475Q489 471 559 408T630 232Q630 117 560 54T362 -11V-240H325V-11ZM325 443Q216 442 155 388T94 232Q94 128 155 75T325 21V443ZM362 21Q471 21 532 74T593 232Q593 333 532 387T362 443V21Z"  />
<glyph unicode="&#x445;" horiz-adv-x="462" d="M207 243L44 462H90L230 268L370 462H415L252 244L438 0H390L229 218L69 0H24L207 243Z"  />
<glyph unicode="&#x446;" horiz-adv-x="589" d="M517 0H100V462H137V32H439V462H475V32H552V-155H517V0Z"  />
<glyph unicode="&#x447;" horiz-adv-x="522" d="M386 204Q364 199 322 192T234 184Q161 184 122 214T82 322V462H118V324Q118 291 126 270T150 237T188 221T239 216Q287 216 328 224T386 236V462H422V0H386V204Z"  />
<glyph unicode="&#x448;" horiz-adv-x="850" d="M100 462H137V32H407V462H443V32H714V462H750V0H100V462Z"  />
<glyph unicode="&#x449;" horiz-adv-x="864" d="M792 0H100V462H137V32H407V462H443V32H714V462H750V32H827V-155H792V0Z"  />
<glyph unicode="&#x44A;" horiz-adv-x="560" d="M170 431H23V462H207V271H347Q392 271 423 261T475 233T505 189T515 132Q515 70 476 35T348 0H170V431ZM350 32Q420 32 449 58T478 132Q478 178 450 209T350 240H207V32H350Z"  />
<glyph unicode="&#x44B;" horiz-adv-x="674" d="M100 462H137V271H277Q322 271 353 261T405 233T435 189T445 132Q445 70 406 35T278 0H100V462ZM280 32Q350 32 379 58T408 132Q408 178 380 209T280 240H137V32H280ZM537 462H574V0H537V462Z"  />
<glyph unicode="&#x44C;" horiz-adv-x="490" d="M100 462H137V271H277Q322 271 353 261T405 233T435 189T445 132Q445 70 406 35T278 0H100V462ZM280 32Q350 32 379 58T408 132Q408 178 380 209T280 240H137V32H280Z"  />
<glyph unicode="&#x44D;" horiz-adv-x="487" d="M188 -13Q140 -13 100 2T29 50L52 72Q77 47 112 32T188 17Q234 17 271 33T334 78T374 144T390 225H152V256H389Q385 295 369 330T328 390T267 431T188 446Q148 446 114 429T54 387L32 410Q61 442 101 459T189 476Q241 476 285 458T360 408T409 330T427 231Q427 177 410 132T360 55T284 5T188 -13Z"  />
<glyph unicode="&#x44E;" horiz-adv-x="783" d="M100 462H137V256H258Q262 302 280 342T328 412T398 459T489 476Q543 476 586 457T659 404T706 325T723 228Q723 177 707 132T659 54T585 2T489 -18Q436 -18 394 1T321 52T274 129T256 223V225H137V0H100V462ZM489 14Q534 14 570 31T632 77T672 145T686 228Q686 273 673 312T634 380T572 427T489 444Q444 444 408 427T346 381T308 312T294 228Q294 184 307 145T346 77T407 31T489 14Z"  />
<glyph unicode="&#x44F;" horiz-adv-x="527" d="M197 194Q141 205 109 238T76 327Q76 392 120 427T247 462H428V0H391V192H237L111 0H68L197 194ZM391 224V431H248Q182 431 147 404T112 327Q112 282 145 253T240 224H391Z"  />
<glyph unicode="&#x451;" horiz-adv-x="561" d="M173 655Q173 669 182 678T205 688Q219 688 228 679T237 655Q237 641 228 632T205 622Q192 622 183 631T173 655ZM339 655Q339 669 348 678T371 688Q384 688 393 679T402 655Q402 641 393 632T371 622Q357 622 348 631T339 655ZM465 259Q464 300 451 334T414 393T357 431T284 445Q237 445 203 426T145 379T111 319T98 259H465ZM293 -13Q242 -13 199 5T125 57T77 135T60 235Q60 287 77 331T125 408T196 458T284 476Q338 476 378 457T446 407T487 335T501 251Q501 246 501 240T500 229H97Q97 189 110 151T147 84T208 36T293 18Q347 18 387 40T458 100L483 79Q411 -13 293 -13Z"  />
<glyph unicode="&#x452;" horiz-adv-x="573" d="M351 -241Q321 -241 300 -235L306 -205Q317 -207 327 -208T349 -210Q376 -210 394 -200T424 -173T439 -134T444 -88V271Q444 302 438 333T416 389T374 429T305 445Q270 445 240 431T186 390T149 324T135 233V0H99V577H11V606H99V756H135V606H302V577H135V355H137Q147 383 165 405T206 444T256 468T311 476Q358 476 390 460T442 417T471 355T480 281V-89Q480 -131 470 -160T442 -207T401 -233T351 -241Z"  />
<glyph unicode="&#x453;" horiz-adv-x="417" d="M222 564H191L293 708H340L222 564ZM100 462H394V431H137V0H100V462Z"  />
<glyph unicode="&#x454;" horiz-adv-x="487" d="M299 -13Q246 -13 203 5T127 55T78 132T60 231Q60 285 77 330T126 407T202 458T298 476Q346 476 387 459T456 410L432 387Q409 412 374 428T299 445Q256 445 221 430T160 390T119 330T99 256H341V225H97Q98 182 112 145T153 79T216 35T299 18Q340 18 375 32T435 72L459 50Q429 18 388 3T299 -13Z"  />
<glyph unicode="&#x455;" horiz-adv-x="424" d="M334 384Q293 445 214 445Q196 445 176 440T140 424T113 396T102 352Q102 311 131 291T226 254Q257 246 284 236T331 211T362 175T373 124Q373 90 360 65T325 22T275 -3T215 -12Q163 -12 119 8T46 69L75 90Q98 57 134 38T215 19Q237 19 259 25T298 44T326 76T337 121Q337 149 324 167T291 196T244 215T191 230Q132 245 99 272T66 352Q66 383 79 406T113 445T160 468T215 476Q264 476 301 458T361 404L334 384Z"  />
<glyph unicode="&#x456;" horiz-adv-x="233" d="M99 462H135V0H99V462ZM117 623Q105 623 96 632T86 656Q86 670 95 679T117 688Q128 688 137 679T147 656Q147 641 138 632T117 623Z"  />
<glyph unicode="&#x457;" horiz-adv-x="233" d="M2 655Q2 669 11 678T34 688Q47 688 56 679T65 655Q65 641 56 632T34 622Q20 622 11 631T2 655ZM168 655Q168 669 177 678T200 688Q213 688 222 679T231 655Q231 641 222 632T200 622Q186 622 177 631T168 655ZM135 0H99V462H135V0Z"  />
<glyph unicode="&#x458;" horiz-adv-x="234" d="M17 -241Q-2 -241 -20 -236L-14 -206Q-6 -208 1 -209T16 -210Q45 -210 61 -200T86 -174T97 -137T99 -94V462H135V-96Q135 -129 130 -156T112 -201T76 -230T17 -241ZM117 623Q105 623 96 632T86 656Q86 670 95 679T117 688Q129 688 138 679T148 656Q148 641 138 632T117 623Z"  />
<glyph unicode="&#x459;" horiz-adv-x="834" d="M54 -5Q46 -5 34 -4T16 0L23 32Q28 30 35 29T51 27Q86 27 109 46T147 102T167 187T173 297V462H480V271H621Q665 271 697 261T749 233T779 189T789 132Q789 70 750 35T621 0H444V431H208V289Q208 228 201 175T177 81T130 18T54 -5ZM624 32Q694 32 723 58T752 132Q752 178 724 209T624 240H480V32H624Z"  />
<glyph unicode="&#x45A;" horiz-adv-x="835" d="M100 462H137V263H445V462H481V263H622Q711 263 750 227T790 128Q790 66 751 33T622 0H445V232H137V0H100V462ZM625 32Q695 32 724 56T753 128Q753 174 725 203T625 232H481V32H625Z"  />
<glyph unicode="&#x45B;" horiz-adv-x="573" d="M99 577H11V606H99V756H135V606H302V577H135V355H137Q147 383 165 405T206 444T256 468T311 476Q358 476 390 460T442 417T471 355T480 281V0H444V271Q444 302 438 333T416 389T374 429T305 445Q270 445 240 431T186 390T149 324T135 233V0H99V577Z"  />
<glyph unicode="&#x45C;" horiz-adv-x="478" d="M256 564H225L327 708H374L256 564ZM101 462H137V245H139L380 462H432L181 243L459 0H405L139 238H137V0H101V462Z"  />
<glyph unicode="&#x45E;" horiz-adv-x="447" d="M228 573Q171 573 137 608T97 695L122 700Q133 651 161 628T228 604Q267 604 295 627T334 700L359 695Q353 644 319 609T228 573ZM73 -241Q62 -241 49 -240T26 -235L32 -202Q51 -209 73 -209Q93 -209 107 -202T133 -182T153 -155T167 -122L209 -9L22 462H62L228 34L386 462H425L195 -142Q177 -189 149 -215T73 -241Z"  />
<glyph unicode="&#x45F;" horiz-adv-x="575" d="M270 0H100V462H137V32H439V462H475V0H304V-155H270V0Z"  />
<glyph unicode="&#x490;" horiz-adv-x="496" d="M102 708H443V856H479V674H140V0H102V708Z"  />
<glyph unicode="&#x491;" horiz-adv-x="417" d="M100 462H359V588H394V431H137V0H100V462Z"  />
<glyph unicode="&#x2013;" horiz-adv-x="400" d="M370 235H30V266H370V235Z"  />
<glyph unicode="&#x2014;" horiz-adv-x="600" d="M570 235H30V266H570V235Z"  />
<glyph unicode="&#x2018;" horiz-adv-x="221" d="M130 708H159L100 478H61L130 708Z"  />
<glyph unicode="&#x2019;" horiz-adv-x="221" d="M91 478H61L121 708H159L91 478Z"  />
<glyph unicode="&#x201A;" horiz-adv-x="221" d="M91 -139H61L121 92H159L91 -139Z"  />
<glyph unicode="&#x201C;" horiz-adv-x="361" d="M131 708H161L100 478H61L131 708ZM271 708H300L241 478H202L271 708Z"  />
<glyph unicode="&#x201D;" horiz-adv-x="361" d="M262 708H300L230 478H201L262 708ZM121 708H159L91 478H61L121 708Z"  />
<glyph unicode="&#x201E;" horiz-adv-x="361" d="M262 92H300L230 -139H201L262 92ZM121 92H159L91 -139H61L121 92Z"  />
<glyph unicode="&#x2020;" horiz-adv-x="531" d="M284 502H481V470H284V-126H248V470H50V502H248V708H284V502Z"  />
<glyph unicode="&#x2021;" horiz-adv-x="531" d="M284 506H478V473H284V109H478V76H284V-126H248V76H53V109H248V473H53V506H248V708H284V506Z"  />
<glyph unicode="&#x2022;" horiz-adv-x="500" d="M73 354Q73 391 87 423T125 479T181 517T250 531Q287 531 319 517T375 479T413 423T427 354Q427 317 413 285T375 229T319 191T250 177Q213 177 181 191T125 229T87 285T73 354Z"  />
<glyph unicode="&#x2026;" horiz-adv-x="1000" d="M198 29Q198 14 189 4T166 -6Q152 -6 143 4T133 29Q133 43 142 53T166 63Q180 63 189 53T198 29ZM533 29Q533 14 523 4T500 -6Q486 -6 477 4T467 29Q467 43 476 53T500 63Q514 63 523 53T533 29ZM867 29Q867 14 858 4T834 -6Q820 -6 811 4T802 29Q802 43 811 53T834 63Q848 63 857 53T867 29Z"  />
<glyph unicode="&#x2030;" horiz-adv-x="1000" d="M475 -7Q445 -7 418 4T371 36T340 83T328 141Q328 172 339 199T371 247T418 279T475 291Q506 291 533 280T580 248T612 200T624 141Q624 110 612 83T580 36T533 5T475 -7ZM475 23Q499 23 520 32T558 57T583 94T592 141Q592 166 583 188T558 226T521 252T475 261Q451 261 430 252T394 227T370 188T361 141Q361 116 370 95T394 57T430 32T475 23ZM820 -7Q789 -7 762 4T715 36T684 83T672 141Q672 172 683 199T715 247T762 279T820 291Q850 291 877 280T924 248T956 200T968 141Q968 110 957 83T925 36T877 5T820 -7ZM820 23Q844 23 865 32T902 57T927 94T936 141Q936 166 927 188T903 226T866 252T820 261Q796 261 775 252T739 227T714 188T705 141Q705 116 714 95T738 57T775 32T820 23ZM112 -28L85 -12L528 737L555 721L112 -28ZM185 420Q154 420 127 431T80 463T49 510T37 568Q37 599 48 626T80 674T127 706T185 718Q215 718 242 707T289 675T321 627T333 568Q333 537 322 510T290 463T242 432T185 420ZM185 450Q209 450 230 459T267 484T292 521T301 568Q301 593 292 615T268 653T231 679T185 688Q161 688 140 679T104 654T79 615T70 568Q70 543 79 522T103 484T140 459T185 450Z"  />
<glyph unicode="&#x2039;" horiz-adv-x="315" d="M229 56L203 37L75 238L202 438L228 420L114 238L229 56Z"  />
<glyph unicode="&#x203A;" horiz-adv-x="315" d="M86 420L112 439L240 238L113 38L87 56L201 238L86 420Z"  />
<glyph unicode="&#x20AC;" horiz-adv-x="566" d="M509 662Q481 678 449 686T376 694Q329 694 289 678T217 631T163 555T128 452H455L445 422H124Q122 407 121 387T119 348Q119 335 119 317T122 286H404L394 256H125Q134 200 156 156T211 80T285 31T373 14Q460 14 519 58L535 28Q471 -19 366 -19Q307 -19 260 3T177 62T119 150T87 256H18L30 286H83Q81 298 81 316T80 348Q80 365 81 386T84 422H20L30 452H89Q102 519 129 570T194 657T278 709T378 727Q419 727 457 719T523 695L509 662H509Z"  />
<glyph unicode="&#x2116;" horiz-adv-x="1030" d="M102 708H156L556 47V708H594V0H540L140 663V0H102V708ZM716 355H986V323H716V355ZM851 419Q819 419 793 430T747 460T717 507T706 567Q706 600 716 627T746 673T792 704T851 715Q883 715 909 704T955 674T985 627T996 567Q996 535 986 508T956 461T910 430T851 419ZM851 445Q878 445 899 454T934 480T956 519T964 567Q964 592 957 614T935 653T899 679T851 689Q824 689 803 680T768 654T746 615T738 567Q738 542 745 520T767 481T803 455T851 445Z"  />
<glyph unicode="&#x2122;" horiz-adv-x="1000" d="M393 678H259V296H225V678H91V708H393V678ZM902 296H869V673H867L707 296H686L528 673H526V296H493V708H547L697 350L848 708H902V296Z"  />


</font>
</defs>
</svg>
